<svg xmlns="http://www.w3.org/2000/svg" xmlns:xlink="http://www.w3.org/1999/xlink" width="2000" zoomAndPan="magnify" viewBox="0 0 1500 1499.999933" height="2000" preserveAspectRatio="xMidYMid meet" version="1.0"><defs><filter x="0%" y="0%" width="100%" height="100%" id="9568c77746"><feColorMatrix values="0 0 0 0 1 0 0 0 0 1 0 0 0 0 1 0 0 0 1 0" color-interpolation-filters="sRGB"/></filter><g/><clipPath id="8cd4642505"><path d="M 0 4.25 L 1500 4.25 L 1500 1251.5 L 0 1251.5 Z M 0 4.25 " clip-rule="nonzero"/></clipPath><clipPath id="2aecff7e25"><path d="M 0 0.25 L 1500 0.25 L 1500 1247.5 L 0 1247.5 Z M 0 0.25 " clip-rule="nonzero"/></clipPath><linearGradient x1="800" gradientTransform="matrix(0.749957, 0, 0, 0.750101, 149.659004, 462.229268)" y1="-554.896" x2="800" gradientUnits="userSpaceOnUse" y2="984.89599" id="285d2de819"><stop stop-opacity="1" stop-color="rgb(48.629761%, 80.778503%, 41.958618%)" offset="0"/><stop stop-opacity="1" stop-color="rgb(48.629761%, 80.778503%, 41.958618%)" offset="0.25"/><stop stop-opacity="1" stop-color="rgb(48.629761%, 80.778503%, 41.958618%)" offset="0.375"/><stop stop-opacity="1" stop-color="rgb(48.629761%, 80.778503%, 41.958618%)" offset="0.390625"/><stop stop-opacity="1" stop-color="rgb(48.629761%, 80.778503%, 41.958618%)" offset="0.398438"/><stop stop-opacity="1" stop-color="rgb(49.194336%, 81.079102%, 42.578125%)" offset="0.402344"/><stop stop-opacity="1" stop-color="rgb(49.758911%, 81.381226%, 43.199158%)" offset="0.40625"/><stop stop-opacity="1" stop-color="rgb(50.463867%, 81.756592%, 43.972778%)" offset="0.410156"/><stop stop-opacity="1" stop-color="rgb(51.168823%, 82.131958%, 44.746399%)" offset="0.414062"/><stop stop-opacity="1" stop-color="rgb(51.872253%, 82.507324%, 45.52002%)" offset="0.417969"/><stop stop-opacity="1" stop-color="rgb(52.577209%, 82.88269%, 46.29364%)" offset="0.421875"/><stop stop-opacity="1" stop-color="rgb(53.282166%, 83.258057%, 47.067261%)" offset="0.425781"/><stop stop-opacity="1" stop-color="rgb(53.987122%, 83.633423%, 47.840881%)" offset="0.429688"/><stop stop-opacity="1" stop-color="rgb(54.690552%, 84.008789%, 48.614502%)" offset="0.433594"/><stop stop-opacity="1" stop-color="rgb(55.395508%, 84.384155%, 49.388123%)" offset="0.4375"/><stop stop-opacity="1" stop-color="rgb(56.100464%, 84.759521%, 50.161743%)" offset="0.441406"/><stop stop-opacity="1" stop-color="rgb(56.80542%, 85.134888%, 50.935364%)" offset="0.445312"/><stop stop-opacity="1" stop-color="rgb(57.50885%, 85.510254%, 51.708984%)" offset="0.449219"/><stop stop-opacity="1" stop-color="rgb(58.213806%, 85.88562%, 52.482605%)" offset="0.453125"/><stop stop-opacity="1" stop-color="rgb(58.918762%, 86.260986%, 53.2547%)" offset="0.457031"/><stop stop-opacity="1" stop-color="rgb(59.623718%, 86.636353%, 54.02832%)" offset="0.460938"/><stop stop-opacity="1" stop-color="rgb(60.327148%, 87.011719%, 54.801941%)" offset="0.464844"/><stop stop-opacity="1" stop-color="rgb(61.032104%, 87.387085%, 55.575562%)" offset="0.46875"/><stop stop-opacity="1" stop-color="rgb(61.737061%, 87.762451%, 56.349182%)" offset="0.472656"/><stop stop-opacity="1" stop-color="rgb(62.442017%, 88.137817%, 57.122803%)" offset="0.476562"/><stop stop-opacity="1" stop-color="rgb(63.145447%, 88.513184%, 57.896423%)" offset="0.480469"/><stop stop-opacity="1" stop-color="rgb(63.850403%, 88.88855%, 58.670044%)" offset="0.484375"/><stop stop-opacity="1" stop-color="rgb(64.555359%, 89.263916%, 59.443665%)" offset="0.488281"/><stop stop-opacity="1" stop-color="rgb(65.260315%, 89.639282%, 60.217285%)" offset="0.492188"/><stop stop-opacity="1" stop-color="rgb(65.963745%, 90.013123%, 60.990906%)" offset="0.496094"/><stop stop-opacity="1" stop-color="rgb(66.668701%, 90.388489%, 61.764526%)" offset="0.5"/><stop stop-opacity="1" stop-color="rgb(67.373657%, 90.763855%, 62.538147%)" offset="0.503906"/><stop stop-opacity="1" stop-color="rgb(68.078613%, 91.139221%, 63.311768%)" offset="0.507812"/><stop stop-opacity="1" stop-color="rgb(68.782043%, 91.514587%, 64.085388%)" offset="0.511719"/><stop stop-opacity="1" stop-color="rgb(69.487%, 91.889954%, 64.859009%)" offset="0.515625"/><stop stop-opacity="1" stop-color="rgb(70.191956%, 92.26532%, 65.631104%)" offset="0.519531"/><stop stop-opacity="1" stop-color="rgb(70.896912%, 92.640686%, 66.404724%)" offset="0.523438"/><stop stop-opacity="1" stop-color="rgb(71.600342%, 93.016052%, 67.178345%)" offset="0.527344"/><stop stop-opacity="1" stop-color="rgb(72.305298%, 93.391418%, 67.951965%)" offset="0.53125"/><stop stop-opacity="1" stop-color="rgb(73.010254%, 93.766785%, 68.725586%)" offset="0.535156"/><stop stop-opacity="1" stop-color="rgb(73.71521%, 94.142151%, 69.499207%)" offset="0.539063"/><stop stop-opacity="1" stop-color="rgb(74.41864%, 94.517517%, 70.272827%)" offset="0.542969"/><stop stop-opacity="1" stop-color="rgb(75.123596%, 94.892883%, 71.046448%)" offset="0.546875"/><stop stop-opacity="1" stop-color="rgb(75.828552%, 95.26825%, 71.820068%)" offset="0.550781"/><stop stop-opacity="1" stop-color="rgb(76.533508%, 95.643616%, 72.593689%)" offset="0.554688"/><stop stop-opacity="1" stop-color="rgb(77.238464%, 96.018982%, 73.36731%)" offset="0.558594"/><stop stop-opacity="1" stop-color="rgb(77.94342%, 96.394348%, 74.14093%)" offset="0.5625"/><stop stop-opacity="1" stop-color="rgb(78.646851%, 96.769714%, 74.914551%)" offset="0.566406"/><stop stop-opacity="1" stop-color="rgb(79.351807%, 97.145081%, 75.688171%)" offset="0.570312"/><stop stop-opacity="1" stop-color="rgb(80.056763%, 97.520447%, 76.461792%)" offset="0.574219"/><stop stop-opacity="1" stop-color="rgb(80.761719%, 97.895813%, 77.235413%)" offset="0.578125"/><stop stop-opacity="1" stop-color="rgb(81.465149%, 98.271179%, 78.007507%)" offset="0.582031"/><stop stop-opacity="1" stop-color="rgb(82.170105%, 98.646545%, 78.781128%)" offset="0.585938"/><stop stop-opacity="1" stop-color="rgb(82.875061%, 99.021912%, 79.554749%)" offset="0.589844"/><stop stop-opacity="1" stop-color="rgb(83.580017%, 99.397278%, 80.328369%)" offset="0.59375"/><stop stop-opacity="1" stop-color="rgb(84.144592%, 99.697876%, 80.947876%)" offset="0.597656"/><stop stop-opacity="1" stop-color="rgb(84.709167%, 100%, 81.568909%)" offset="0.601562"/><stop stop-opacity="1" stop-color="rgb(84.709167%, 100%, 81.568909%)" offset="0.609375"/><stop stop-opacity="1" stop-color="rgb(84.709167%, 100%, 81.568909%)" offset="0.625"/><stop stop-opacity="1" stop-color="rgb(84.709167%, 100%, 81.568909%)" offset="0.75"/><stop stop-opacity="1" stop-color="rgb(84.709167%, 100%, 81.568909%)" offset="1"/></linearGradient><clipPath id="b4a09d44f1"><rect x="0" width="1500" y="0" height="1248"/></clipPath><clipPath id="f9fdaa7326"><path d="M 0 0.25 L 1500 0.25 L 1500 1247.5 L 0 1247.5 Z M 0 0.25 " clip-rule="nonzero"/></clipPath><clipPath id="0a4897b482"><rect x="0" width="1500" y="0" height="1248"/></clipPath><clipPath id="abe53ed023"><rect x="0" width="1500" y="0" height="1248"/></clipPath><mask id="9c80218d61"><g filter="url(#9568c77746)"><g transform="matrix(1, 0, 0, 1, 0, 0.000000000000112799)"><g clip-path="url(#abe53ed023)"><g clip-path="url(#f9fdaa7326)"><g transform="matrix(1, 0, 0, 1, 0, 0.000000000000112799)"><g clip-path="url(#0a4897b482)"><g fill="#000000" fill-opacity="1"><g transform="translate(267.996104, 681.251041)"><g><path d="M 175.984375 -135.109375 L 175.984375 -133.71875 C 175.984375 -133.875 175.984375 -133.988281 175.984375 -134.0625 C 175.984375 -134.144531 175.984375 -134.265625 175.984375 -134.421875 C 175.984375 -134.566406 175.984375 -134.675781 175.984375 -134.75 C 175.984375 -134.832031 175.984375 -134.953125 175.984375 -135.109375 Z M 180.375 -9.9375 C 181.300781 -8.695312 181.609375 -6.847656 181.296875 -4.390625 C 180.835938 -1.304688 179.066406 0.234375 175.984375 0.234375 L 150.578125 0.234375 C 148.578125 0.234375 146.960938 -0.226562 145.734375 -1.15625 C 145.265625 -1.457031 144.835938 -1.914062 144.453125 -2.53125 C 144.078125 -3.15625 143.65625 -3.773438 143.1875 -4.390625 L 101.390625 -78.53125 L 52.65625 -78.53125 L 52.65625 -7.859375 C 52.65625 -4.316406 51.847656 -2.082031 50.234375 -1.15625 C 48.617188 -0.226562 47.269531 0.234375 46.1875 0.234375 L 25.171875 0.234375 C 24.097656 0.234375 22.710938 -0.226562 21.015625 -1.15625 C 19.316406 -2.082031 18.46875 -4.316406 18.46875 -7.859375 L 18.46875 -104.859375 C 18.46875 -108.398438 19.316406 -110.59375 21.015625 -111.4375 C 22.710938 -112.28125 24.097656 -112.703125 25.171875 -112.703125 L 125.640625 -112.703125 C 131.492188 -112.703125 135.570312 -114.394531 137.875 -117.78125 C 140.34375 -121.164062 141.578125 -126.710938 141.578125 -134.421875 C 141.578125 -142.117188 140.34375 -147.660156 137.875 -151.046875 C 135.570312 -154.429688 131.492188 -156.125 125.640625 -156.125 L 25.171875 -156.125 C 24.097656 -156.125 22.710938 -156.546875 21.015625 -157.390625 C 19.316406 -158.242188 18.46875 -160.441406 18.46875 -163.984375 L 18.46875 -182.21875 C 18.46875 -185.914062 19.316406 -188.1875 21.015625 -189.03125 C 22.710938 -189.882812 24.097656 -190.3125 25.171875 -190.3125 L 131.640625 -190.3125 C 147.503906 -190.3125 158.898438 -185.382812 165.828125 -175.53125 C 172.441406 -165.976562 175.828125 -152.273438 175.984375 -134.421875 C 175.828125 -116.554688 172.441406 -102.851562 165.828125 -93.3125 C 159.972656 -85.300781 151.347656 -80.601562 139.953125 -79.21875 Z M 180.375 -9.9375 "/></g></g></g><g fill="#000000" fill-opacity="1"><g transform="translate(479.550513, 681.251041)"><g><path d="M 157.28125 -41.34375 C 158.351562 -41.34375 159.738281 -40.914062 161.4375 -40.0625 C 163.132812 -39.21875 163.984375 -37.023438 163.984375 -33.484375 L 163.984375 -8.078125 C 163.984375 -4.535156 163.132812 -2.34375 161.4375 -1.5 C 159.738281 -0.65625 158.351562 -0.234375 157.28125 -0.234375 L 75.296875 -0.234375 C 70.210938 -0.234375 65.515625 -0.539062 61.203125 -1.15625 C 56.890625 -1.769531 52.960938 -2.769531 49.421875 -4.15625 C 41.878906 -6.769531 35.875 -11.003906 31.40625 -16.859375 C 26.789062 -22.859375 23.484375 -30.40625 21.484375 -39.5 C 20.710938 -43.34375 20.054688 -47.570312 19.515625 -52.1875 C 18.972656 -56.8125 18.625 -61.816406 18.46875 -67.203125 L 18.46875 -68.359375 L 18.9375 -97.46875 C 19.394531 -99.15625 20.242188 -101.078125 21.484375 -103.234375 C 24.867188 -109.242188 30.101562 -112.476562 37.1875 -112.9375 L 156.359375 -113.171875 C 157.273438 -113.171875 158.582031 -112.742188 160.28125 -111.890625 C 161.976562 -111.046875 162.828125 -108.851562 162.828125 -105.3125 L 162.828125 -87.0625 C 162.828125 -83.519531 161.976562 -81.285156 160.28125 -80.359375 C 158.582031 -79.441406 157.273438 -78.984375 156.359375 -78.984375 L 53.125 -78.984375 C 53.125 -78.984375 53.082031 -78.132812 53 -76.4375 C 52.925781 -74.75 52.847656 -72.828125 52.765625 -70.671875 C 52.691406 -68.515625 52.65625 -66.585938 52.65625 -64.890625 C 52.65625 -63.203125 52.65625 -62.359375 52.65625 -62.359375 C 52.8125 -61.742188 52.890625 -61.085938 52.890625 -60.390625 C 52.890625 -59.703125 52.96875 -59.050781 53.125 -58.4375 C 53.738281 -54.125 55.046875 -50.65625 57.046875 -48.03125 C 58.890625 -45.726562 61.195312 -44.035156 63.96875 -42.953125 C 65.664062 -42.492188 67.472656 -42.109375 69.390625 -41.796875 C 71.316406 -41.492188 73.515625 -41.34375 75.984375 -41.34375 Z M 38.796875 -111.09375 Z M 157.515625 -190.765625 C 158.429688 -190.765625 159.738281 -190.300781 161.4375 -189.375 C 163.132812 -188.457031 163.984375 -186.226562 163.984375 -182.6875 L 163.984375 -164.4375 C 163.984375 -160.894531 163.132812 -158.660156 161.4375 -157.734375 C 159.738281 -156.816406 158.429688 -156.359375 157.515625 -156.359375 L 24.71875 -156.59375 C 23.789062 -156.59375 22.515625 -157.015625 20.890625 -157.859375 C 19.273438 -158.703125 18.46875 -160.894531 18.46875 -164.4375 L 18.46875 -182.453125 C 18.46875 -186.148438 19.273438 -188.457031 20.890625 -189.375 C 22.515625 -190.300781 23.789062 -190.765625 24.71875 -190.765625 Z M 157.515625 -190.765625 "/></g></g></g><g fill="#000000" fill-opacity="1"><g transform="translate(673.552344, 681.251041)"><g><path d="M 202.546875 -192.84375 C 204.242188 -192.84375 205.472656 -192.457031 206.234375 -191.6875 C 207.003906 -190.914062 207.46875 -190.222656 207.625 -189.609375 C 208.082031 -188.066406 207.851562 -186.144531 206.9375 -183.84375 L 142.734375 -24.015625 C 139.191406 -15.546875 135.800781 -9.925781 132.5625 -7.15625 C 131.789062 -6.382812 130.640625 -5.613281 129.109375 -4.84375 C 124.328125 -1.457031 119.015625 0.234375 113.171875 0.234375 C 106.859375 0.234375 101.117188 -1.6875 95.953125 -5.53125 C 90.796875 -9.382812 87.375 -14.394531 85.6875 -20.5625 C 85.53125 -21.019531 85.296875 -21.554688 84.984375 -22.171875 C 84.679688 -22.785156 84.375 -23.398438 84.0625 -24.015625 L 19.40625 -183.84375 C 18.476562 -186.144531 18.242188 -188.066406 18.703125 -189.609375 C 18.859375 -190.078125 19.28125 -190.734375 19.96875 -191.578125 C 20.664062 -192.421875 21.863281 -192.84375 23.5625 -192.84375 L 48.5 -192.84375 C 51.882812 -192.84375 54.039062 -191.226562 54.96875 -188 L 112.46875 -45.03125 C 112.625 -44.882812 112.703125 -44.734375 112.703125 -44.578125 C 112.703125 -44.421875 112.703125 -44.34375 112.703125 -44.34375 L 113.625 -44.578125 C 113.625 -44.578125 113.660156 -44.613281 113.734375 -44.6875 C 113.816406 -44.769531 113.859375 -44.882812 113.859375 -45.03125 L 170.4375 -188 C 171.820312 -191.226562 174.054688 -192.84375 177.140625 -192.84375 Z M 202.546875 -192.84375 "/></g></g></g><g fill="#000000" fill-opacity="1"><g transform="translate(911.435576, 681.251041)"><g><path d="M 46.1875 -190.3125 C 47.113281 -190.3125 48.421875 -189.847656 50.109375 -188.921875 C 51.804688 -187.992188 52.65625 -185.757812 52.65625 -182.21875 L 52.65625 -7.859375 C 52.65625 -4.316406 51.804688 -2.082031 50.109375 -1.15625 C 48.421875 -0.226562 47.113281 0.234375 46.1875 0.234375 L 24.9375 0.234375 C 24.019531 0.234375 22.710938 -0.226562 21.015625 -1.15625 C 19.316406 -2.082031 18.46875 -4.316406 18.46875 -7.859375 L 18.46875 -182.21875 C 18.46875 -185.757812 19.316406 -187.992188 21.015625 -188.921875 C 22.710938 -189.847656 24.019531 -190.3125 24.9375 -190.3125 Z M 46.1875 -190.3125 "/></g></g></g><g fill="#000000" fill-opacity="1"><g transform="translate(994.117301, 681.251041)"><g><path d="M 202.546875 -192.84375 C 204.242188 -192.84375 205.472656 -192.457031 206.234375 -191.6875 C 207.003906 -190.914062 207.46875 -190.222656 207.625 -189.609375 C 208.082031 -188.066406 207.851562 -186.144531 206.9375 -183.84375 L 142.734375 -24.015625 C 139.191406 -15.546875 135.800781 -9.925781 132.5625 -7.15625 C 131.789062 -6.382812 130.640625 -5.613281 129.109375 -4.84375 C 124.328125 -1.457031 119.015625 0.234375 113.171875 0.234375 C 106.859375 0.234375 101.117188 -1.6875 95.953125 -5.53125 C 90.796875 -9.382812 87.375 -14.394531 85.6875 -20.5625 C 85.53125 -21.019531 85.296875 -21.554688 84.984375 -22.171875 C 84.679688 -22.785156 84.375 -23.398438 84.0625 -24.015625 L 19.40625 -183.84375 C 18.476562 -186.144531 18.242188 -188.066406 18.703125 -189.609375 C 18.859375 -190.078125 19.28125 -190.734375 19.96875 -191.578125 C 20.664062 -192.421875 21.863281 -192.84375 23.5625 -192.84375 L 48.5 -192.84375 C 51.882812 -192.84375 54.039062 -191.226562 54.96875 -188 L 112.46875 -45.03125 C 112.625 -44.882812 112.703125 -44.734375 112.703125 -44.578125 C 112.703125 -44.421875 112.703125 -44.34375 112.703125 -44.34375 L 113.625 -44.578125 C 113.625 -44.578125 113.660156 -44.613281 113.734375 -44.6875 C 113.816406 -44.769531 113.859375 -44.882812 113.859375 -45.03125 L 170.4375 -188 C 171.820312 -191.226562 174.054688 -192.84375 177.140625 -192.84375 Z M 202.546875 -192.84375 "/></g></g></g></g></g></g></g></g></g></mask><clipPath id="5625ac1525"><rect x="0" width="1500" y="0" height="1248"/></clipPath><clipPath id="3527a1fabd"><rect x="0" width="1500" y="0" height="1248"/></clipPath><clipPath id="64789a80fb"><path d="M 251.085938 698.757812 L 1248.585938 698.757812 L 1248.585938 947.007812 L 251.085938 947.007812 Z M 251.085938 698.757812 " clip-rule="nonzero"/></clipPath><clipPath id="63a162151d"><path d="M 0.0859375 0.757812 L 997.585938 0.757812 L 997.585938 249.007812 L 0.0859375 249.007812 Z M 0.0859375 0.757812 " clip-rule="nonzero"/></clipPath><clipPath id="a29c7e2b09"><path d="M 0.0859375 0.757812 L 997.585938 0.757812 L 997.585938 249.007812 L 0.0859375 249.007812 Z M 0.0859375 0.757812 " clip-rule="nonzero"/></clipPath><linearGradient x1="542.21899" gradientTransform="matrix(0.750135, 0, 0, 0.751555, 92.080414, 93.015302)" y1="-122.754605" x2="542.21899" gradientUnits="userSpaceOnUse" y2="207.560673" id="88d1cea96c"><stop stop-opacity="1" stop-color="rgb(99.609375%, 100%, 100%)" offset="0"/><stop stop-opacity="1" stop-color="rgb(99.609375%, 100%, 100%)" offset="0.25"/><stop stop-opacity="1" stop-color="rgb(99.609375%, 100%, 100%)" offset="0.375"/><stop stop-opacity="1" stop-color="rgb(99.609375%, 100%, 100%)" offset="0.40625"/><stop stop-opacity="1" stop-color="rgb(99.238586%, 99.623108%, 99.623108%)" offset="0.410156"/><stop stop-opacity="1" stop-color="rgb(98.869324%, 99.247742%, 99.247742%)" offset="0.414062"/><stop stop-opacity="1" stop-color="rgb(98.396301%, 98.765564%, 98.765564%)" offset="0.417969"/><stop stop-opacity="1" stop-color="rgb(97.924805%, 98.284912%, 98.284912%)" offset="0.421875"/><stop stop-opacity="1" stop-color="rgb(97.451782%, 97.802734%, 97.802734%)" offset="0.425781"/><stop stop-opacity="1" stop-color="rgb(96.97876%, 97.322083%, 97.322083%)" offset="0.429688"/><stop stop-opacity="1" stop-color="rgb(96.505737%, 96.839905%, 96.839905%)" offset="0.433594"/><stop stop-opacity="1" stop-color="rgb(96.032715%, 96.359253%, 96.359253%)" offset="0.4375"/><stop stop-opacity="1" stop-color="rgb(95.559692%, 95.878601%, 95.878601%)" offset="0.441406"/><stop stop-opacity="1" stop-color="rgb(95.08667%, 95.397949%, 95.397949%)" offset="0.445312"/><stop stop-opacity="1" stop-color="rgb(94.613647%, 94.915771%, 94.915771%)" offset="0.449219"/><stop stop-opacity="1" stop-color="rgb(94.140625%, 94.43512%, 94.43512%)" offset="0.453125"/><stop stop-opacity="1" stop-color="rgb(93.667603%, 93.952942%, 93.952942%)" offset="0.457031"/><stop stop-opacity="1" stop-color="rgb(93.19458%, 93.47229%, 93.47229%)" offset="0.460937"/><stop stop-opacity="1" stop-color="rgb(92.721558%, 92.990112%, 92.990112%)" offset="0.464844"/><stop stop-opacity="1" stop-color="rgb(92.248535%, 92.50946%, 92.50946%)" offset="0.46875"/><stop stop-opacity="1" stop-color="rgb(91.775513%, 92.028809%, 92.028809%)" offset="0.472656"/><stop stop-opacity="1" stop-color="rgb(91.30249%, 91.548157%, 91.548157%)" offset="0.476562"/><stop stop-opacity="1" stop-color="rgb(90.829468%, 91.065979%, 91.065979%)" offset="0.480469"/><stop stop-opacity="1" stop-color="rgb(90.356445%, 90.585327%, 90.585327%)" offset="0.484375"/><stop stop-opacity="1" stop-color="rgb(89.883423%, 90.103149%, 90.103149%)" offset="0.488281"/><stop stop-opacity="1" stop-color="rgb(89.4104%, 89.622498%, 89.622498%)" offset="0.492187"/><stop stop-opacity="1" stop-color="rgb(88.937378%, 89.14032%, 89.14032%)" offset="0.496094"/><stop stop-opacity="1" stop-color="rgb(88.464355%, 88.659668%, 88.659668%)" offset="0.5"/><stop stop-opacity="1" stop-color="rgb(87.991333%, 88.179016%, 88.179016%)" offset="0.503906"/><stop stop-opacity="1" stop-color="rgb(87.518311%, 87.698364%, 87.698364%)" offset="0.507812"/><stop stop-opacity="1" stop-color="rgb(87.045288%, 87.216187%, 87.216187%)" offset="0.511719"/><stop stop-opacity="1" stop-color="rgb(86.572266%, 86.735535%, 86.735535%)" offset="0.515625"/><stop stop-opacity="1" stop-color="rgb(86.099243%, 86.253357%, 86.253357%)" offset="0.519531"/><stop stop-opacity="1" stop-color="rgb(85.626221%, 85.772705%, 85.772705%)" offset="0.523437"/><stop stop-opacity="1" stop-color="rgb(85.153198%, 85.292053%, 85.292053%)" offset="0.527344"/><stop stop-opacity="1" stop-color="rgb(84.681702%, 84.811401%, 84.811401%)" offset="0.53125"/><stop stop-opacity="1" stop-color="rgb(84.208679%, 84.329224%, 84.329224%)" offset="0.535156"/><stop stop-opacity="1" stop-color="rgb(83.735657%, 83.848572%, 83.848572%)" offset="0.539062"/><stop stop-opacity="1" stop-color="rgb(83.262634%, 83.366394%, 83.366394%)" offset="0.542969"/><stop stop-opacity="1" stop-color="rgb(82.789612%, 82.885742%, 82.885742%)" offset="0.546875"/><stop stop-opacity="1" stop-color="rgb(82.316589%, 82.403564%, 82.403564%)" offset="0.550781"/><stop stop-opacity="1" stop-color="rgb(81.843567%, 81.922913%, 81.922913%)" offset="0.554687"/><stop stop-opacity="1" stop-color="rgb(81.370544%, 81.442261%, 81.442261%)" offset="0.558594"/><stop stop-opacity="1" stop-color="rgb(80.897522%, 80.961609%, 80.961609%)" offset="0.5625"/><stop stop-opacity="1" stop-color="rgb(80.4245%, 80.479431%, 80.479431%)" offset="0.566406"/><stop stop-opacity="1" stop-color="rgb(79.951477%, 79.998779%, 79.998779%)" offset="0.570312"/><stop stop-opacity="1" stop-color="rgb(79.478455%, 79.516602%, 79.516602%)" offset="0.574219"/><stop stop-opacity="1" stop-color="rgb(79.005432%, 79.03595%, 79.03595%)" offset="0.578125"/><stop stop-opacity="1" stop-color="rgb(78.53241%, 78.553772%, 78.553772%)" offset="0.582031"/><stop stop-opacity="1" stop-color="rgb(78.059387%, 78.07312%, 78.07312%)" offset="0.585938"/><stop stop-opacity="1" stop-color="rgb(77.653503%, 77.661133%, 77.661133%)" offset="0.589844"/><stop stop-opacity="1" stop-color="rgb(77.249146%, 77.249146%, 77.249146%)" offset="0.59375"/><stop stop-opacity="1" stop-color="rgb(77.249146%, 77.249146%, 77.249146%)" offset="0.625"/><stop stop-opacity="1" stop-color="rgb(77.249146%, 77.249146%, 77.249146%)" offset="0.75"/><stop stop-opacity="1" stop-color="rgb(77.249146%, 77.249146%, 77.249146%)" offset="1"/></linearGradient><clipPath id="81d952837c"><rect x="0" width="998" y="0" height="250"/></clipPath><clipPath id="6755d67db4"><path d="M 0.0859375 0.757812 L 997.585938 0.757812 L 997.585938 249.007812 L 0.0859375 249.007812 Z M 0.0859375 0.757812 " clip-rule="nonzero"/></clipPath><clipPath id="7946df7974"><rect x="0" width="998" y="0" height="250"/></clipPath><clipPath id="4bb54dd2fb"><rect x="0" width="998" y="0" height="250"/></clipPath><mask id="3c4d484223"><g filter="url(#9568c77746)"><g transform="matrix(1, 0, 0, 1, 0, 0.000000000000113687)"><g clip-path="url(#4bb54dd2fb)"><g clip-path="url(#6755d67db4)"><g transform="matrix(1, 0, 0, 1, 0, 0.000000000000113687)"><g clip-path="url(#7946df7974)"><g fill="#000000" fill-opacity="1"><g transform="translate(92.347661, 138.008502)"><g><path d="M 13.15625 0.453125 C 10.789062 0.453125 8.597656 0.125 6.578125 -0.53125 C 4.554688 -1.1875 2.960938 -1.945312 1.796875 -2.8125 L 1.609375 -9.703125 L 2.203125 -9.796875 C 2.847656 -8.046875 3.726562 -6.472656 4.84375 -5.078125 C 5.96875 -3.679688 7.328125 -2.566406 8.921875 -1.734375 C 10.515625 -0.910156 12.328125 -0.5 14.359375 -0.5 C 15.429688 -0.5 16.425781 -0.722656 17.34375 -1.171875 C 18.257812 -1.617188 19.007812 -2.269531 19.59375 -3.125 C 20.175781 -3.988281 20.46875 -5.046875 20.46875 -6.296875 C 20.46875 -7.429688 20.144531 -8.421875 19.5 -9.265625 C 18.851562 -10.109375 18.03125 -10.84375 17.03125 -11.46875 C 16.039062 -12.101562 14.992188 -12.65625 13.890625 -13.125 C 12.785156 -13.601562 11.773438 -14.023438 10.859375 -14.390625 C 9.296875 -15.066406 7.851562 -15.742188 6.53125 -16.421875 C 5.207031 -17.097656 4.144531 -17.960938 3.34375 -19.015625 C 2.550781 -20.078125 2.15625 -21.5 2.15625 -23.28125 C 2.15625 -26.125 3.222656 -28.375 5.359375 -30.03125 C 7.492188 -31.6875 10.367188 -32.515625 13.984375 -32.515625 C 15.703125 -32.515625 17.300781 -32.347656 18.78125 -32.015625 C 20.269531 -31.679688 21.613281 -31.207031 22.8125 -30.59375 L 23 -24.609375 L 22.5 -24.421875 C 21.539062 -26.785156 20.148438 -28.59375 18.328125 -29.84375 C 16.503906 -31.101562 14.472656 -31.734375 12.234375 -31.734375 C 10.390625 -31.734375 8.832031 -31.21875 7.5625 -30.1875 C 6.289062 -29.164062 5.65625 -27.75 5.65625 -25.9375 C 5.65625 -24.925781 5.90625 -24.046875 6.40625 -23.296875 C 6.914062 -22.546875 7.59375 -21.894531 8.4375 -21.34375 C 9.28125 -20.789062 10.1875 -20.304688 11.15625 -19.890625 C 12.125 -19.484375 13.066406 -19.09375 13.984375 -18.71875 C 15.148438 -18.257812 16.335938 -17.769531 17.546875 -17.25 C 18.753906 -16.726562 19.863281 -16.113281 20.875 -15.40625 C 21.894531 -14.707031 22.707031 -13.863281 23.3125 -12.875 C 23.925781 -11.894531 24.234375 -10.71875 24.234375 -9.34375 C 24.234375 -7.769531 23.910156 -6.367188 23.265625 -5.140625 C 22.628906 -3.921875 21.773438 -2.894531 20.703125 -2.0625 C 19.628906 -1.238281 18.429688 -0.613281 17.109375 -0.1875 C 15.796875 0.238281 14.476562 0.453125 13.15625 0.453125 Z M 13.15625 0.453125 "/></g></g></g><g fill="#000000" fill-opacity="1"><g transform="translate(117.783514, 138.008502)"><g><path d="M 12.328125 0.453125 C 11.035156 0.453125 9.753906 0.222656 8.484375 -0.234375 C 7.210938 -0.691406 6.039062 -1.378906 4.96875 -2.296875 C 3.894531 -3.222656 3.035156 -4.375 2.390625 -5.75 C 1.742188 -7.125 1.421875 -8.75 1.421875 -10.625 C 1.421875 -12.582031 1.765625 -14.34375 2.453125 -15.90625 C 3.148438 -17.476562 4.078125 -18.816406 5.234375 -19.921875 C 6.398438 -21.023438 7.695312 -21.867188 9.125 -22.453125 C 10.550781 -23.035156 12.019531 -23.328125 13.53125 -23.328125 C 15.613281 -23.328125 17.359375 -22.910156 18.765625 -22.078125 C 20.179688 -21.253906 21.25 -20.210938 21.96875 -18.953125 C 22.6875 -17.691406 23.046875 -16.390625 23.046875 -15.046875 L 5.609375 -15.046875 C 5.578125 -14.796875 5.550781 -14.546875 5.53125 -14.296875 C 5.519531 -14.054688 5.515625 -13.8125 5.515625 -13.5625 C 5.515625 -11.570312 5.90625 -9.796875 6.6875 -8.234375 C 7.46875 -6.671875 8.570312 -5.453125 10 -4.578125 C 11.425781 -3.703125 13.109375 -3.265625 15.046875 -3.265625 C 16.765625 -3.265625 18.28125 -3.601562 19.59375 -4.28125 C 20.914062 -4.957031 22.050781 -5.832031 23 -6.90625 L 23.40625 -6.4375 C 22.707031 -5.363281 21.835938 -4.296875 20.796875 -3.234375 C 19.753906 -2.179688 18.523438 -1.300781 17.109375 -0.59375 C 15.703125 0.101562 14.109375 0.453125 12.328125 0.453125 Z M 5.65625 -15.6875 L 18.40625 -15.6875 C 18.21875 -16.945312 17.820312 -18.085938 17.21875 -19.109375 C 16.625 -20.140625 15.890625 -20.960938 15.015625 -21.578125 C 14.140625 -22.191406 13.164062 -22.5 12.09375 -22.5 C 10.8125 -22.53125 9.722656 -22.222656 8.828125 -21.578125 C 7.941406 -20.929688 7.238281 -20.085938 6.71875 -19.046875 C 6.195312 -18.003906 5.84375 -16.882812 5.65625 -15.6875 Z M 5.65625 -15.6875 "/></g></g></g><g fill="#000000" fill-opacity="1"><g transform="translate(142.34544, 138.008502)"><g><path d="M 12.328125 0.453125 C 11.035156 0.453125 9.753906 0.222656 8.484375 -0.234375 C 7.210938 -0.691406 6.039062 -1.378906 4.96875 -2.296875 C 3.894531 -3.222656 3.035156 -4.375 2.390625 -5.75 C 1.742188 -7.125 1.421875 -8.75 1.421875 -10.625 C 1.421875 -12.582031 1.765625 -14.34375 2.453125 -15.90625 C 3.148438 -17.476562 4.078125 -18.816406 5.234375 -19.921875 C 6.398438 -21.023438 7.695312 -21.867188 9.125 -22.453125 C 10.550781 -23.035156 12.019531 -23.328125 13.53125 -23.328125 C 15.613281 -23.328125 17.359375 -22.910156 18.765625 -22.078125 C 20.179688 -21.253906 21.25 -20.210938 21.96875 -18.953125 C 22.6875 -17.691406 23.046875 -16.390625 23.046875 -15.046875 L 5.609375 -15.046875 C 5.578125 -14.796875 5.550781 -14.546875 5.53125 -14.296875 C 5.519531 -14.054688 5.515625 -13.8125 5.515625 -13.5625 C 5.515625 -11.570312 5.90625 -9.796875 6.6875 -8.234375 C 7.46875 -6.671875 8.570312 -5.453125 10 -4.578125 C 11.425781 -3.703125 13.109375 -3.265625 15.046875 -3.265625 C 16.765625 -3.265625 18.28125 -3.601562 19.59375 -4.28125 C 20.914062 -4.957031 22.050781 -5.832031 23 -6.90625 L 23.40625 -6.4375 C 22.707031 -5.363281 21.835938 -4.296875 20.796875 -3.234375 C 19.753906 -2.179688 18.523438 -1.300781 17.109375 -0.59375 C 15.703125 0.101562 14.109375 0.453125 12.328125 0.453125 Z M 5.65625 -15.6875 L 18.40625 -15.6875 C 18.21875 -16.945312 17.820312 -18.085938 17.21875 -19.109375 C 16.625 -20.140625 15.890625 -20.960938 15.015625 -21.578125 C 14.140625 -22.191406 13.164062 -22.5 12.09375 -22.5 C 10.8125 -22.53125 9.722656 -22.222656 8.828125 -21.578125 C 7.941406 -20.929688 7.238281 -20.085938 6.71875 -19.046875 C 6.195312 -18.003906 5.84375 -16.882812 5.65625 -15.6875 Z M 5.65625 -15.6875 "/></g></g></g><g fill="#000000" fill-opacity="1"><g transform="translate(166.907366, 138.008502)"><g/></g></g><g fill="#000000" fill-opacity="1"><g transform="translate(176.106595, 138.008502)"><g><path d="M 8.640625 0.453125 C 7.078125 0.453125 5.890625 -0.0820312 5.078125 -1.15625 C 4.265625 -2.226562 3.859375 -4.003906 3.859375 -6.484375 L 3.859375 -22.265625 L 0.921875 -22.265625 L 0.921875 -23 L 7.8125 -29.078125 L 8.5625 -29.078125 L 8.5625 -23 L 15.6875 -23 L 15.5 -22.265625 L 8.5625 -22.265625 L 8.5625 -6.4375 C 8.5625 -5.03125 8.820312 -3.992188 9.34375 -3.328125 C 9.863281 -2.671875 10.628906 -2.34375 11.640625 -2.34375 C 12.160156 -2.34375 12.78125 -2.488281 13.5 -2.78125 C 14.21875 -3.070312 14.960938 -3.691406 15.734375 -4.640625 L 16.1875 -4.1875 C 14.96875 -2.769531 13.75 -1.640625 12.53125 -0.796875 C 11.320312 0.0351562 10.023438 0.453125 8.640625 0.453125 Z M 8.640625 0.453125 "/></g></g></g><g fill="#000000" fill-opacity="1"><g transform="translate(192.481212, 138.008502)"><g><path d="M 0.921875 0 L 0.921875 -0.640625 C 1.679688 -0.890625 2.175781 -1.40625 2.40625 -2.1875 C 2.644531 -2.96875 2.765625 -4.1875 2.765625 -5.84375 L 2.765625 -30.21875 C 2.765625 -31.570312 2.601562 -32.460938 2.28125 -32.890625 C 1.957031 -33.316406 1.503906 -33.65625 0.921875 -33.90625 L 0.921875 -34.546875 L 6.984375 -37.21875 L 7.453125 -36.84375 L 7.453125 -19.1875 C 8.710938 -20.226562 10.15625 -21.175781 11.78125 -22.03125 C 13.40625 -22.894531 15.101562 -23.328125 16.875 -23.328125 C 19 -23.328125 20.710938 -22.734375 22.015625 -21.546875 C 23.316406 -20.367188 23.96875 -18.429688 23.96875 -15.734375 L 23.96875 -5.84375 C 23.96875 -4.1875 24.082031 -2.96875 24.3125 -2.1875 C 24.539062 -1.40625 25.039062 -0.890625 25.8125 -0.640625 L 25.8125 0 L 17.4375 0 L 17.4375 -0.640625 C 18.195312 -0.890625 18.691406 -1.40625 18.921875 -2.1875 C 19.160156 -2.96875 19.28125 -4.1875 19.28125 -5.84375 L 19.28125 -14.90625 C 19.28125 -16.988281 18.84375 -18.601562 17.96875 -19.75 C 17.09375 -20.90625 15.796875 -21.484375 14.078125 -21.484375 C 13.003906 -21.484375 11.945312 -21.222656 10.90625 -20.703125 C 9.863281 -20.179688 8.710938 -19.414062 7.453125 -18.40625 L 7.453125 -5.84375 C 7.453125 -4.1875 7.566406 -2.96875 7.796875 -2.1875 C 8.023438 -1.40625 8.523438 -0.890625 9.296875 -0.640625 L 9.296875 0 Z M 0.921875 0 "/></g></g></g><g fill="#000000" fill-opacity="1"><g transform="translate(219.204961, 138.008502)"><g><path d="M 12.328125 0.453125 C 11.035156 0.453125 9.753906 0.222656 8.484375 -0.234375 C 7.210938 -0.691406 6.039062 -1.378906 4.96875 -2.296875 C 3.894531 -3.222656 3.035156 -4.375 2.390625 -5.75 C 1.742188 -7.125 1.421875 -8.75 1.421875 -10.625 C 1.421875 -12.582031 1.765625 -14.34375 2.453125 -15.90625 C 3.148438 -17.476562 4.078125 -18.816406 5.234375 -19.921875 C 6.398438 -21.023438 7.695312 -21.867188 9.125 -22.453125 C 10.550781 -23.035156 12.019531 -23.328125 13.53125 -23.328125 C 15.613281 -23.328125 17.359375 -22.910156 18.765625 -22.078125 C 20.179688 -21.253906 21.25 -20.210938 21.96875 -18.953125 C 22.6875 -17.691406 23.046875 -16.390625 23.046875 -15.046875 L 5.609375 -15.046875 C 5.578125 -14.796875 5.550781 -14.546875 5.53125 -14.296875 C 5.519531 -14.054688 5.515625 -13.8125 5.515625 -13.5625 C 5.515625 -11.570312 5.90625 -9.796875 6.6875 -8.234375 C 7.46875 -6.671875 8.570312 -5.453125 10 -4.578125 C 11.425781 -3.703125 13.109375 -3.265625 15.046875 -3.265625 C 16.765625 -3.265625 18.28125 -3.601562 19.59375 -4.28125 C 20.914062 -4.957031 22.050781 -5.832031 23 -6.90625 L 23.40625 -6.4375 C 22.707031 -5.363281 21.835938 -4.296875 20.796875 -3.234375 C 19.753906 -2.179688 18.523438 -1.300781 17.109375 -0.59375 C 15.703125 0.101562 14.109375 0.453125 12.328125 0.453125 Z M 5.65625 -15.6875 L 18.40625 -15.6875 C 18.21875 -16.945312 17.820312 -18.085938 17.21875 -19.109375 C 16.625 -20.140625 15.890625 -20.960938 15.015625 -21.578125 C 14.140625 -22.191406 13.164062 -22.5 12.09375 -22.5 C 10.8125 -22.53125 9.722656 -22.222656 8.828125 -21.578125 C 7.941406 -20.929688 7.238281 -20.085938 6.71875 -19.046875 C 6.195312 -18.003906 5.84375 -16.882812 5.65625 -15.6875 Z M 5.65625 -15.6875 "/></g></g></g><g fill="#000000" fill-opacity="1"><g transform="translate(243.766887, 138.008502)"><g/></g></g><g fill="#000000" fill-opacity="1"><g transform="translate(252.966116, 138.008502)"><g><path d="M 2.15625 0 L 2.15625 -0.640625 C 2.925781 -0.890625 3.425781 -1.40625 3.65625 -2.1875 C 3.882812 -2.96875 4 -4.1875 4 -5.84375 L 4 -26.359375 C 4 -28.015625 3.882812 -29.234375 3.65625 -30.015625 C 3.425781 -30.796875 2.925781 -31.3125 2.15625 -31.5625 L 2.15625 -32.203125 L 24.234375 -32.203125 L 24.75 -25.71875 L 24.15625 -25.578125 C 23.226562 -27.847656 21.988281 -29.394531 20.4375 -30.21875 C 18.894531 -31.050781 16.835938 -31.46875 14.265625 -31.46875 L 8.875 -31.46875 L 8.875 -17.65625 L 13.296875 -17.65625 C 15.160156 -17.65625 16.628906 -17.78125 17.703125 -18.03125 C 18.773438 -18.28125 19.570312 -18.664062 20.09375 -19.1875 C 20.625 -19.707031 21.007812 -20.363281 21.25 -21.15625 L 21.890625 -21.15625 L 21.890625 -13.4375 L 21.25 -13.4375 C 21.007812 -14.226562 20.625 -14.882812 20.09375 -15.40625 C 19.570312 -15.925781 18.773438 -16.304688 17.703125 -16.546875 C 16.628906 -16.796875 15.160156 -16.921875 13.296875 -16.921875 L 8.875 -16.921875 L 8.875 -3.03125 C 8.875 -1.5 9.640625 -0.734375 11.171875 -0.734375 L 15.59375 -0.734375 C 17.925781 -0.734375 19.890625 -1.160156 21.484375 -2.015625 C 23.078125 -2.878906 24.300781 -4.476562 25.15625 -6.8125 L 25.765625 -6.71875 L 25.4375 0 Z M 2.15625 0 "/></g></g></g><g fill="#000000" fill-opacity="1"><g transform="translate(280.333812, 138.008502)"><g><path d="M 18.859375 0 C 17.628906 0 17.015625 -0.613281 17.015625 -1.84375 L 17.015625 -9.4375 C 16.585938 -7.65625 15.941406 -6.007812 15.078125 -4.5 C 14.222656 -3 13.164062 -1.796875 11.90625 -0.890625 C 10.65625 0.00390625 9.234375 0.453125 7.640625 0.453125 C 5.953125 0.453125 4.484375 -0.0664062 3.234375 -1.109375 C 1.992188 -2.148438 1.375 -3.632812 1.375 -5.5625 C 1.375 -7.15625 1.859375 -8.453125 2.828125 -9.453125 C 3.796875 -10.453125 5.078125 -11.285156 6.671875 -11.953125 C 8.265625 -12.628906 10.007812 -13.226562 11.90625 -13.75 L 17.015625 -15.21875 C 16.984375 -17.488281 16.40625 -19.109375 15.28125 -20.078125 C 14.164062 -21.046875 12.753906 -21.53125 11.046875 -21.53125 C 9.753906 -21.53125 8.476562 -21.226562 7.21875 -20.625 C 5.96875 -20.03125 4.757812 -19.03125 3.59375 -17.625 L 3.125 -18.03125 C 4.414062 -19.625 5.929688 -20.90625 7.671875 -21.875 C 9.421875 -22.84375 11.34375 -23.328125 13.4375 -23.328125 C 16.226562 -23.328125 18.289062 -22.597656 19.625 -21.140625 C 20.957031 -19.679688 21.625 -17.539062 21.625 -14.71875 L 21.625 -5.84375 C 21.625 -4.1875 21.738281 -2.96875 21.96875 -2.1875 C 22.195312 -1.40625 22.691406 -0.890625 23.453125 -0.640625 L 23.453125 0 Z M 5.65625 -7.171875 C 5.65625 -5.671875 6.109375 -4.582031 7.015625 -3.90625 C 7.921875 -3.226562 8.894531 -2.890625 9.9375 -2.890625 C 11.070312 -2.890625 12.078125 -3.234375 12.953125 -3.921875 C 13.828125 -4.617188 14.5625 -5.507812 15.15625 -6.59375 C 15.75 -7.6875 16.207031 -8.832031 16.53125 -10.03125 C 16.851562 -11.226562 17.015625 -12.347656 17.015625 -13.390625 L 17.015625 -14.578125 L 12.09375 -13.15625 C 11.539062 -13 10.90625 -12.773438 10.1875 -12.484375 C 9.46875 -12.191406 8.757812 -11.816406 8.0625 -11.359375 C 7.375 -10.898438 6.800781 -10.328125 6.34375 -9.640625 C 5.882812 -8.953125 5.65625 -8.128906 5.65625 -7.171875 Z M 5.65625 -7.171875 "/></g></g></g><g fill="#000000" fill-opacity="1"><g transform="translate(304.711763, 138.008502)"><g><path d="M 1.28125 0 L 1.28125 -0.640625 C 2.050781 -0.890625 2.550781 -1.40625 2.78125 -2.1875 C 3.007812 -2.96875 3.125 -4.1875 3.125 -5.84375 L 3.125 -16.421875 C 3.125 -17.773438 2.960938 -18.664062 2.640625 -19.09375 C 2.316406 -19.519531 1.863281 -19.859375 1.28125 -20.109375 L 1.28125 -20.75 L 7.359375 -23.40625 L 7.8125 -23.046875 L 7.8125 -17.484375 C 8.519531 -19.140625 9.640625 -20.488281 11.171875 -21.53125 C 12.035156 -22.144531 12.921875 -22.597656 13.828125 -22.890625 C 14.734375 -23.179688 15.738281 -23.328125 16.84375 -23.328125 C 17.632812 -23.328125 18.320312 -23.21875 18.90625 -23 C 19.488281 -22.78125 19.78125 -22.425781 19.78125 -21.9375 C 19.78125 -21.601562 19.664062 -21.195312 19.4375 -20.71875 C 19.207031 -20.25 18.859375 -19.835938 18.390625 -19.484375 C 17.929688 -19.128906 17.351562 -18.953125 16.65625 -18.953125 C 16.007812 -18.953125 15.21875 -19.066406 14.28125 -19.296875 C 13.34375 -19.523438 12.140625 -19.867188 10.671875 -20.328125 C 10.085938 -19.835938 9.476562 -19.117188 8.84375 -18.171875 C 8.21875 -17.222656 7.875 -16.164062 7.8125 -15 L 7.8125 -5.84375 C 7.8125 -4.1875 7.925781 -2.96875 8.15625 -2.1875 C 8.394531 -1.40625 8.894531 -0.890625 9.65625 -0.640625 L 9.65625 0 Z M 1.28125 0 "/></g></g></g><g fill="#000000" fill-opacity="1"><g transform="translate(325.456009, 138.008502)"><g><path d="M 8.640625 0.453125 C 7.078125 0.453125 5.890625 -0.0820312 5.078125 -1.15625 C 4.265625 -2.226562 3.859375 -4.003906 3.859375 -6.484375 L 3.859375 -22.265625 L 0.921875 -22.265625 L 0.921875 -23 L 7.8125 -29.078125 L 8.5625 -29.078125 L 8.5625 -23 L 15.6875 -23 L 15.5 -22.265625 L 8.5625 -22.265625 L 8.5625 -6.4375 C 8.5625 -5.03125 8.820312 -3.992188 9.34375 -3.328125 C 9.863281 -2.671875 10.628906 -2.34375 11.640625 -2.34375 C 12.160156 -2.34375 12.78125 -2.488281 13.5 -2.78125 C 14.21875 -3.070312 14.960938 -3.691406 15.734375 -4.640625 L 16.1875 -4.1875 C 14.96875 -2.769531 13.75 -1.640625 12.53125 -0.796875 C 11.320312 0.0351562 10.023438 0.453125 8.640625 0.453125 Z M 8.640625 0.453125 "/></g></g></g><g fill="#000000" fill-opacity="1"><g transform="translate(341.830626, 138.008502)"><g><path d="M 0.921875 0 L 0.921875 -0.640625 C 1.679688 -0.890625 2.175781 -1.40625 2.40625 -2.1875 C 2.644531 -2.96875 2.765625 -4.1875 2.765625 -5.84375 L 2.765625 -30.21875 C 2.765625 -31.570312 2.601562 -32.460938 2.28125 -32.890625 C 1.957031 -33.316406 1.503906 -33.65625 0.921875 -33.90625 L 0.921875 -34.546875 L 6.984375 -37.21875 L 7.453125 -36.84375 L 7.453125 -19.1875 C 8.710938 -20.226562 10.15625 -21.175781 11.78125 -22.03125 C 13.40625 -22.894531 15.101562 -23.328125 16.875 -23.328125 C 19 -23.328125 20.710938 -22.734375 22.015625 -21.546875 C 23.316406 -20.367188 23.96875 -18.429688 23.96875 -15.734375 L 23.96875 -5.84375 C 23.96875 -4.1875 24.082031 -2.96875 24.3125 -2.1875 C 24.539062 -1.40625 25.039062 -0.890625 25.8125 -0.640625 L 25.8125 0 L 17.4375 0 L 17.4375 -0.640625 C 18.195312 -0.890625 18.691406 -1.40625 18.921875 -2.1875 C 19.160156 -2.96875 19.28125 -4.1875 19.28125 -5.84375 L 19.28125 -14.90625 C 19.28125 -16.988281 18.84375 -18.601562 17.96875 -19.75 C 17.09375 -20.90625 15.796875 -21.484375 14.078125 -21.484375 C 13.003906 -21.484375 11.945312 -21.222656 10.90625 -20.703125 C 9.863281 -20.179688 8.710938 -19.414062 7.453125 -18.40625 L 7.453125 -5.84375 C 7.453125 -4.1875 7.566406 -2.96875 7.796875 -2.1875 C 8.023438 -1.40625 8.523438 -0.890625 9.296875 -0.640625 L 9.296875 0 Z M 0.921875 0 "/></g></g></g><g fill="#000000" fill-opacity="1"><g transform="translate(368.554386, 138.008502)"><g><path d="M 5.25 0.328125 C 4.507812 0.328125 3.867188 0.0507812 3.328125 -0.5 C 2.796875 -1.050781 2.53125 -1.710938 2.53125 -2.484375 C 2.53125 -3.253906 2.796875 -3.90625 3.328125 -4.4375 C 3.867188 -4.976562 4.507812 -5.25 5.25 -5.25 C 5.976562 -5.25 6.601562 -4.976562 7.125 -4.4375 C 7.644531 -3.90625 7.90625 -3.253906 7.90625 -2.484375 C 7.90625 -1.710938 7.644531 -1.050781 7.125 -0.5 C 6.601562 0.0507812 5.976562 0.328125 5.25 0.328125 Z M 5.25 0.328125 "/></g></g></g><g fill="#000000" fill-opacity="1"><g transform="translate(378.995494, 138.008502)"><g/></g></g><g fill="#000000" fill-opacity="1"><g transform="translate(388.194735, 138.008502)"><g><path d="M 25.578125 0.328125 C 24.316406 0.328125 23.3125 0.046875 22.5625 -0.515625 C 21.8125 -1.085938 21.148438 -1.957031 20.578125 -3.125 C 20.015625 -4.289062 19.363281 -5.765625 18.625 -7.546875 C 17.957031 -9.234375 17.390625 -10.648438 16.921875 -11.796875 C 16.460938 -12.953125 16.019531 -13.875 15.59375 -14.5625 C 15.164062 -15.25 14.644531 -15.742188 14.03125 -16.046875 C 13.414062 -16.359375 12.601562 -16.515625 11.59375 -16.515625 L 8.875 -16.515625 L 8.875 -5.84375 C 8.875 -4.1875 8.988281 -2.96875 9.21875 -2.1875 C 9.445312 -1.40625 9.945312 -0.890625 10.71875 -0.640625 L 10.71875 0 L 2.15625 0 L 2.15625 -0.640625 C 2.925781 -0.890625 3.425781 -1.40625 3.65625 -2.1875 C 3.882812 -2.96875 4 -4.1875 4 -5.84375 L 4 -26.359375 C 4 -28.015625 3.882812 -29.234375 3.65625 -30.015625 C 3.425781 -30.796875 2.925781 -31.3125 2.15625 -31.5625 L 2.15625 -32.203125 L 11.828125 -32.203125 C 14.335938 -32.203125 16.378906 -31.992188 17.953125 -31.578125 C 19.535156 -31.160156 20.753906 -30.609375 21.609375 -29.921875 C 22.472656 -29.234375 23.070312 -28.441406 23.40625 -27.546875 C 23.75 -26.660156 23.921875 -25.757812 23.921875 -24.84375 C 23.921875 -22.726562 23.179688 -20.929688 21.703125 -19.453125 C 20.234375 -17.984375 17.96875 -17.066406 14.90625 -16.703125 C 16.195312 -16.546875 17.257812 -16.28125 18.09375 -15.90625 C 18.9375 -15.539062 19.65625 -15.015625 20.25 -14.328125 C 20.851562 -13.640625 21.398438 -12.765625 21.890625 -11.703125 C 22.378906 -10.648438 22.929688 -9.351562 23.546875 -7.8125 C 24.378906 -5.789062 25.023438 -4.257812 25.484375 -3.21875 C 25.941406 -2.175781 26.367188 -1.476562 26.765625 -1.125 C 27.171875 -0.769531 27.648438 -0.59375 28.203125 -0.59375 C 28.316406 -0.59375 28.425781 -0.59375 28.53125 -0.59375 C 28.644531 -0.59375 28.765625 -0.609375 28.890625 -0.640625 L 28.890625 0 C 28.367188 0.125 27.785156 0.207031 27.140625 0.25 C 26.492188 0.300781 25.972656 0.328125 25.578125 0.328125 Z M 8.875 -17.25 L 11.828125 -17.25 C 13.566406 -17.25 14.96875 -17.539062 16.03125 -18.125 C 17.09375 -18.707031 17.859375 -19.492188 18.328125 -20.484375 C 18.804688 -21.484375 19.046875 -22.566406 19.046875 -23.734375 C 19.046875 -24.992188 18.769531 -26.210938 18.21875 -27.390625 C 17.664062 -28.566406 16.789062 -29.539062 15.59375 -30.3125 C 14.394531 -31.082031 12.832031 -31.46875 10.90625 -31.46875 C 10.257812 -31.46875 9.582031 -31.421875 8.875 -31.328125 Z M 8.875 -17.25 "/></g></g></g><g fill="#000000" fill-opacity="1"><g transform="translate(415.654396, 138.008502)"><g><path d="M 12.328125 0.453125 C 11.035156 0.453125 9.753906 0.222656 8.484375 -0.234375 C 7.210938 -0.691406 6.039062 -1.378906 4.96875 -2.296875 C 3.894531 -3.222656 3.035156 -4.375 2.390625 -5.75 C 1.742188 -7.125 1.421875 -8.75 1.421875 -10.625 C 1.421875 -12.582031 1.765625 -14.34375 2.453125 -15.90625 C 3.148438 -17.476562 4.078125 -18.816406 5.234375 -19.921875 C 6.398438 -21.023438 7.695312 -21.867188 9.125 -22.453125 C 10.550781 -23.035156 12.019531 -23.328125 13.53125 -23.328125 C 15.613281 -23.328125 17.359375 -22.910156 18.765625 -22.078125 C 20.179688 -21.253906 21.25 -20.210938 21.96875 -18.953125 C 22.6875 -17.691406 23.046875 -16.390625 23.046875 -15.046875 L 5.609375 -15.046875 C 5.578125 -14.796875 5.550781 -14.546875 5.53125 -14.296875 C 5.519531 -14.054688 5.515625 -13.8125 5.515625 -13.5625 C 5.515625 -11.570312 5.90625 -9.796875 6.6875 -8.234375 C 7.46875 -6.671875 8.570312 -5.453125 10 -4.578125 C 11.425781 -3.703125 13.109375 -3.265625 15.046875 -3.265625 C 16.765625 -3.265625 18.28125 -3.601562 19.59375 -4.28125 C 20.914062 -4.957031 22.050781 -5.832031 23 -6.90625 L 23.40625 -6.4375 C 22.707031 -5.363281 21.835938 -4.296875 20.796875 -3.234375 C 19.753906 -2.179688 18.523438 -1.300781 17.109375 -0.59375 C 15.703125 0.101562 14.109375 0.453125 12.328125 0.453125 Z M 5.65625 -15.6875 L 18.40625 -15.6875 C 18.21875 -16.945312 17.820312 -18.085938 17.21875 -19.109375 C 16.625 -20.140625 15.890625 -20.960938 15.015625 -21.578125 C 14.140625 -22.191406 13.164062 -22.5 12.09375 -22.5 C 10.8125 -22.53125 9.722656 -22.222656 8.828125 -21.578125 C 7.941406 -20.929688 7.238281 -20.085938 6.71875 -19.046875 C 6.195312 -18.003906 5.84375 -16.882812 5.65625 -15.6875 Z M 5.65625 -15.6875 "/></g></g></g><g fill="#000000" fill-opacity="1"><g transform="translate(440.216322, 138.008502)"><g><path d="M 10.171875 0.375 C 8.484375 0.375 6.898438 0.160156 5.421875 -0.265625 C 3.953125 -0.703125 2.773438 -1.210938 1.890625 -1.796875 L 1.421875 -7.8125 L 1.890625 -7.90625 C 2.867188 -5.695312 4.160156 -3.894531 5.765625 -2.5 C 7.378906 -1.101562 9.210938 -0.394531 11.265625 -0.375 C 12.710938 -0.34375 13.859375 -0.734375 14.703125 -1.546875 C 15.546875 -2.359375 15.96875 -3.285156 15.96875 -4.328125 C 15.96875 -5.796875 15.40625 -6.894531 14.28125 -7.625 C 13.164062 -8.363281 11.609375 -9.039062 9.609375 -9.65625 C 8.015625 -10.144531 6.628906 -10.65625 5.453125 -11.1875 C 4.273438 -11.726562 3.367188 -12.421875 2.734375 -13.265625 C 2.109375 -14.109375 1.796875 -15.222656 1.796875 -16.609375 C 1.796875 -17.773438 2.109375 -18.867188 2.734375 -19.890625 C 3.367188 -20.921875 4.34375 -21.75 5.65625 -22.375 C 6.976562 -23.007812 8.679688 -23.328125 10.765625 -23.328125 C 12.078125 -23.328125 13.378906 -23.21875 14.671875 -23 C 15.960938 -22.78125 16.988281 -22.503906 17.75 -22.171875 L 17.984375 -17.109375 L 17.4375 -17.015625 C 16.664062 -18.640625 15.597656 -19.988281 14.234375 -21.0625 C 12.867188 -22.132812 11.34375 -22.671875 9.65625 -22.671875 C 8.21875 -22.671875 7.0625 -22.332031 6.1875 -21.65625 C 5.3125 -20.988281 4.875 -20.164062 4.875 -19.1875 C 4.875 -17.894531 5.429688 -16.90625 6.546875 -16.21875 C 7.671875 -15.53125 9.257812 -14.832031 11.3125 -14.125 C 12.539062 -13.726562 13.742188 -13.28125 14.921875 -12.78125 C 16.109375 -12.289062 17.09375 -11.609375 17.875 -10.734375 C 18.65625 -9.867188 19.046875 -8.648438 19.046875 -7.078125 C 19.046875 -5.921875 18.769531 -4.765625 18.21875 -3.609375 C 17.664062 -2.460938 16.742188 -1.507812 15.453125 -0.75 C 14.171875 0 12.410156 0.375 10.171875 0.375 Z M 10.171875 0.375 "/></g></g></g><g fill="#000000" fill-opacity="1"><g transform="translate(460.822575, 138.008502)"><g><path d="M 8.640625 0.453125 C 7.078125 0.453125 5.890625 -0.0820312 5.078125 -1.15625 C 4.265625 -2.226562 3.859375 -4.003906 3.859375 -6.484375 L 3.859375 -22.265625 L 0.921875 -22.265625 L 0.921875 -23 L 7.8125 -29.078125 L 8.5625 -29.078125 L 8.5625 -23 L 15.6875 -23 L 15.5 -22.265625 L 8.5625 -22.265625 L 8.5625 -6.4375 C 8.5625 -5.03125 8.820312 -3.992188 9.34375 -3.328125 C 9.863281 -2.671875 10.628906 -2.34375 11.640625 -2.34375 C 12.160156 -2.34375 12.78125 -2.488281 13.5 -2.78125 C 14.21875 -3.070312 14.960938 -3.691406 15.734375 -4.640625 L 16.1875 -4.1875 C 14.96875 -2.769531 13.75 -1.640625 12.53125 -0.796875 C 11.320312 0.0351562 10.023438 0.453125 8.640625 0.453125 Z M 8.640625 0.453125 "/></g></g></g><g fill="#000000" fill-opacity="1"><g transform="translate(476.645221, 138.008502)"><g><path d="M 13.703125 0.453125 C 12.203125 0.453125 10.722656 0.234375 9.265625 -0.203125 C 7.804688 -0.648438 6.488281 -1.34375 5.3125 -2.28125 C 4.132812 -3.21875 3.191406 -4.394531 2.484375 -5.8125 C 1.773438 -7.238281 1.421875 -8.9375 1.421875 -10.90625 C 1.421875 -12.769531 1.757812 -14.460938 2.4375 -15.984375 C 3.113281 -17.503906 4.035156 -18.804688 5.203125 -19.890625 C 6.367188 -20.984375 7.6875 -21.828125 9.15625 -22.421875 C 10.625 -23.023438 12.140625 -23.328125 13.703125 -23.328125 C 15.148438 -23.328125 16.582031 -23.109375 18 -22.671875 C 19.425781 -22.242188 20.742188 -21.5625 21.953125 -20.625 C 23.171875 -19.695312 24.140625 -18.507812 24.859375 -17.0625 C 25.578125 -15.625 25.9375 -13.894531 25.9375 -11.875 C 25.9375 -9.90625 25.5625 -8.15625 24.8125 -6.625 C 24.0625 -5.09375 23.082031 -3.804688 21.875 -2.765625 C 20.664062 -1.722656 19.335938 -0.925781 17.890625 -0.375 C 16.453125 0.175781 15.054688 0.453125 13.703125 0.453125 Z M 6.03125 -14.359375 C 6.03125 -13.003906 6.226562 -11.53125 6.625 -9.9375 C 7.019531 -8.34375 7.609375 -6.832031 8.390625 -5.40625 C 9.171875 -3.976562 10.144531 -2.8125 11.3125 -1.90625 C 12.476562 -1 13.8125 -0.546875 15.3125 -0.546875 C 16.820312 -0.546875 18.007812 -0.929688 18.875 -1.703125 C 19.75 -2.472656 20.367188 -3.453125 20.734375 -4.640625 C 21.109375 -5.835938 21.296875 -7.082031 21.296875 -8.375 C 21.296875 -9.84375 21.054688 -11.410156 20.578125 -13.078125 C 20.109375 -14.753906 19.4375 -16.328125 18.5625 -17.796875 C 17.6875 -19.273438 16.632812 -20.445312 15.40625 -21.3125 C 14.175781 -22.1875 12.828125 -22.550781 11.359375 -22.40625 C 10.046875 -22.28125 8.992188 -21.828125 8.203125 -21.046875 C 7.421875 -20.265625 6.863281 -19.28125 6.53125 -18.09375 C 6.195312 -16.914062 6.03125 -15.671875 6.03125 -14.359375 Z M 6.03125 -14.359375 "/></g></g></g><g fill="#000000" fill-opacity="1"><g transform="translate(504.472901, 138.008502)"><g><path d="M 1.28125 0 L 1.28125 -0.640625 C 2.050781 -0.890625 2.550781 -1.40625 2.78125 -2.1875 C 3.007812 -2.96875 3.125 -4.1875 3.125 -5.84375 L 3.125 -16.421875 C 3.125 -17.773438 2.960938 -18.664062 2.640625 -19.09375 C 2.316406 -19.519531 1.863281 -19.859375 1.28125 -20.109375 L 1.28125 -20.75 L 7.359375 -23.40625 L 7.8125 -23.046875 L 7.8125 -17.484375 C 8.519531 -19.140625 9.640625 -20.488281 11.171875 -21.53125 C 12.035156 -22.144531 12.921875 -22.597656 13.828125 -22.890625 C 14.734375 -23.179688 15.738281 -23.328125 16.84375 -23.328125 C 17.632812 -23.328125 18.320312 -23.21875 18.90625 -23 C 19.488281 -22.78125 19.78125 -22.425781 19.78125 -21.9375 C 19.78125 -21.601562 19.664062 -21.195312 19.4375 -20.71875 C 19.207031 -20.25 18.859375 -19.835938 18.390625 -19.484375 C 17.929688 -19.128906 17.351562 -18.953125 16.65625 -18.953125 C 16.007812 -18.953125 15.21875 -19.066406 14.28125 -19.296875 C 13.34375 -19.523438 12.140625 -19.867188 10.671875 -20.328125 C 10.085938 -19.835938 9.476562 -19.117188 8.84375 -18.171875 C 8.21875 -17.222656 7.875 -16.164062 7.8125 -15 L 7.8125 -5.84375 C 7.8125 -4.1875 7.925781 -2.96875 8.15625 -2.1875 C 8.394531 -1.40625 8.894531 -0.890625 9.65625 -0.640625 L 9.65625 0 Z M 1.28125 0 "/></g></g></g><g fill="#000000" fill-opacity="1"><g transform="translate(522.963256, 138.008502)"><g><path d="M 12.328125 0.453125 C 11.035156 0.453125 9.753906 0.222656 8.484375 -0.234375 C 7.210938 -0.691406 6.039062 -1.378906 4.96875 -2.296875 C 3.894531 -3.222656 3.035156 -4.375 2.390625 -5.75 C 1.742188 -7.125 1.421875 -8.75 1.421875 -10.625 C 1.421875 -12.582031 1.765625 -14.34375 2.453125 -15.90625 C 3.148438 -17.476562 4.078125 -18.816406 5.234375 -19.921875 C 6.398438 -21.023438 7.695312 -21.867188 9.125 -22.453125 C 10.550781 -23.035156 12.019531 -23.328125 13.53125 -23.328125 C 15.613281 -23.328125 17.359375 -22.910156 18.765625 -22.078125 C 20.179688 -21.253906 21.25 -20.210938 21.96875 -18.953125 C 22.6875 -17.691406 23.046875 -16.390625 23.046875 -15.046875 L 5.609375 -15.046875 C 5.578125 -14.796875 5.550781 -14.546875 5.53125 -14.296875 C 5.519531 -14.054688 5.515625 -13.8125 5.515625 -13.5625 C 5.515625 -11.570312 5.90625 -9.796875 6.6875 -8.234375 C 7.46875 -6.671875 8.570312 -5.453125 10 -4.578125 C 11.425781 -3.703125 13.109375 -3.265625 15.046875 -3.265625 C 16.765625 -3.265625 18.28125 -3.601562 19.59375 -4.28125 C 20.914062 -4.957031 22.050781 -5.832031 23 -6.90625 L 23.40625 -6.4375 C 22.707031 -5.363281 21.835938 -4.296875 20.796875 -3.234375 C 19.753906 -2.179688 18.523438 -1.300781 17.109375 -0.59375 C 15.703125 0.101562 14.109375 0.453125 12.328125 0.453125 Z M 5.65625 -15.6875 L 18.40625 -15.6875 C 18.21875 -16.945312 17.820312 -18.085938 17.21875 -19.109375 C 16.625 -20.140625 15.890625 -20.960938 15.015625 -21.578125 C 14.140625 -22.191406 13.164062 -22.5 12.09375 -22.5 C 10.8125 -22.53125 9.722656 -22.222656 8.828125 -21.578125 C 7.941406 -20.929688 7.238281 -20.085938 6.71875 -19.046875 C 6.195312 -18.003906 5.84375 -16.882812 5.65625 -15.6875 Z M 5.65625 -15.6875 "/></g></g></g><g fill="#000000" fill-opacity="1"><g transform="translate(547.525205, 138.008502)"><g/></g></g><g fill="#000000" fill-opacity="1"><g transform="translate(556.724423, 138.008502)"><g><path d="M 1.65625 8.875 C 0.707031 8.90625 -0.0859375 8.78125 -0.734375 8.5 C -1.378906 8.226562 -1.703125 7.863281 -1.703125 7.40625 C -1.703125 7.101562 -1.570312 6.726562 -1.3125 6.28125 C -1.050781 5.832031 -0.660156 5.425781 -0.140625 5.0625 C 0.378906 4.695312 0.992188 4.515625 1.703125 4.515625 C 2.378906 4.515625 3.289062 4.597656 4.4375 4.765625 C 5.582031 4.929688 6.753906 5.125 7.953125 5.34375 C 8.503906 4.726562 9.054688 3.984375 9.609375 3.109375 C 10.160156 2.234375 10.679688 1.273438 11.171875 0.234375 L 3.453125 -17.625 C 2.804688 -19.15625 2.175781 -20.265625 1.5625 -20.953125 C 0.945312 -21.640625 0.378906 -22.109375 -0.140625 -22.359375 L -0.140625 -23 L 8 -23 L 8 -22.359375 C 7.238281 -22.109375 6.960938 -21.644531 7.171875 -20.96875 C 7.390625 -20.300781 7.835938 -19.195312 8.515625 -17.65625 L 13.75 -5.703125 L 18.90625 -17.625 C 19.550781 -19.15625 19.828125 -20.28125 19.734375 -21 C 19.640625 -21.71875 19.195312 -22.171875 18.40625 -22.359375 L 18.40625 -23 L 23.640625 -23 L 23.640625 -22.359375 C 22.960938 -22.109375 22.296875 -21.644531 21.640625 -20.96875 C 20.984375 -20.300781 20.316406 -19.195312 19.640625 -17.65625 L 12.609375 -1.375 C 11.441406 1.289062 10.289062 3.363281 9.15625 4.84375 C 8.019531 6.332031 6.835938 7.367188 5.609375 7.953125 C 4.378906 8.535156 3.0625 8.84375 1.65625 8.875 Z M 1.65625 8.875 "/></g></g></g><g fill="#000000" fill-opacity="1"><g transform="translate(578.250575, 138.008502)"><g><path d="M 13.703125 0.453125 C 12.203125 0.453125 10.722656 0.234375 9.265625 -0.203125 C 7.804688 -0.648438 6.488281 -1.34375 5.3125 -2.28125 C 4.132812 -3.21875 3.191406 -4.394531 2.484375 -5.8125 C 1.773438 -7.238281 1.421875 -8.9375 1.421875 -10.90625 C 1.421875 -12.769531 1.757812 -14.460938 2.4375 -15.984375 C 3.113281 -17.503906 4.035156 -18.804688 5.203125 -19.890625 C 6.367188 -20.984375 7.6875 -21.828125 9.15625 -22.421875 C 10.625 -23.023438 12.140625 -23.328125 13.703125 -23.328125 C 15.148438 -23.328125 16.582031 -23.109375 18 -22.671875 C 19.425781 -22.242188 20.742188 -21.5625 21.953125 -20.625 C 23.171875 -19.695312 24.140625 -18.507812 24.859375 -17.0625 C 25.578125 -15.625 25.9375 -13.894531 25.9375 -11.875 C 25.9375 -9.90625 25.5625 -8.15625 24.8125 -6.625 C 24.0625 -5.09375 23.082031 -3.804688 21.875 -2.765625 C 20.664062 -1.722656 19.335938 -0.925781 17.890625 -0.375 C 16.453125 0.175781 15.054688 0.453125 13.703125 0.453125 Z M 6.03125 -14.359375 C 6.03125 -13.003906 6.226562 -11.53125 6.625 -9.9375 C 7.019531 -8.34375 7.609375 -6.832031 8.390625 -5.40625 C 9.171875 -3.976562 10.144531 -2.8125 11.3125 -1.90625 C 12.476562 -1 13.8125 -0.546875 15.3125 -0.546875 C 16.820312 -0.546875 18.007812 -0.929688 18.875 -1.703125 C 19.75 -2.472656 20.367188 -3.453125 20.734375 -4.640625 C 21.109375 -5.835938 21.296875 -7.082031 21.296875 -8.375 C 21.296875 -9.84375 21.054688 -11.410156 20.578125 -13.078125 C 20.109375 -14.753906 19.4375 -16.328125 18.5625 -17.796875 C 17.6875 -19.273438 16.632812 -20.445312 15.40625 -21.3125 C 14.175781 -22.1875 12.828125 -22.550781 11.359375 -22.40625 C 10.046875 -22.28125 8.992188 -21.828125 8.203125 -21.046875 C 7.421875 -20.265625 6.863281 -19.28125 6.53125 -18.09375 C 6.195312 -16.914062 6.03125 -15.671875 6.03125 -14.359375 Z M 6.03125 -14.359375 "/></g></g></g><g fill="#000000" fill-opacity="1"><g transform="translate(606.078209, 138.008502)"><g><path d="M 9.65625 0.453125 C 7.238281 0.453125 5.484375 -0.28125 4.390625 -1.75 C 3.304688 -3.21875 2.765625 -5.347656 2.765625 -8.140625 L 2.765625 -16.421875 C 2.765625 -17.773438 2.601562 -18.664062 2.28125 -19.09375 C 1.957031 -19.519531 1.503906 -19.859375 0.921875 -20.109375 L 0.921875 -20.75 L 6.984375 -23.40625 L 7.453125 -23.046875 L 7.453125 -8.734375 C 7.453125 -6.285156 7.726562 -4.445312 8.28125 -3.21875 C 8.832031 -1.988281 10 -1.375 11.78125 -1.375 C 12.820312 -1.375 13.894531 -1.671875 15 -2.265625 C 16.101562 -2.867188 17.222656 -3.738281 18.359375 -4.875 L 18.359375 -16.421875 C 18.359375 -17.773438 18.195312 -18.664062 17.875 -19.09375 C 17.550781 -19.519531 17.097656 -19.859375 16.515625 -20.109375 L 16.515625 -20.75 L 22.59375 -23.40625 L 23.046875 -23.046875 L 23.046875 -5.84375 C 23.046875 -4.1875 23.160156 -2.96875 23.390625 -2.1875 C 23.617188 -1.40625 24.117188 -0.890625 24.890625 -0.640625 L 24.890625 0 L 20.1875 0 C 18.96875 0 18.359375 -0.613281 18.359375 -1.84375 L 18.359375 -3.90625 C 17.035156 -2.65625 15.613281 -1.613281 14.09375 -0.78125 C 12.582031 0.0390625 11.101562 0.453125 9.65625 0.453125 Z M 9.65625 0.453125 "/></g></g></g><g fill="#000000" fill-opacity="1"><g transform="translate(632.342032, 138.008502)"><g><path d="M 1.28125 0 L 1.28125 -0.640625 C 2.050781 -0.890625 2.550781 -1.40625 2.78125 -2.1875 C 3.007812 -2.96875 3.125 -4.1875 3.125 -5.84375 L 3.125 -16.421875 C 3.125 -17.773438 2.960938 -18.664062 2.640625 -19.09375 C 2.316406 -19.519531 1.863281 -19.859375 1.28125 -20.109375 L 1.28125 -20.75 L 7.359375 -23.40625 L 7.8125 -23.046875 L 7.8125 -17.484375 C 8.519531 -19.140625 9.640625 -20.488281 11.171875 -21.53125 C 12.035156 -22.144531 12.921875 -22.597656 13.828125 -22.890625 C 14.734375 -23.179688 15.738281 -23.328125 16.84375 -23.328125 C 17.632812 -23.328125 18.320312 -23.21875 18.90625 -23 C 19.488281 -22.78125 19.78125 -22.425781 19.78125 -21.9375 C 19.78125 -21.601562 19.664062 -21.195312 19.4375 -20.71875 C 19.207031 -20.25 18.859375 -19.835938 18.390625 -19.484375 C 17.929688 -19.128906 17.351562 -18.953125 16.65625 -18.953125 C 16.007812 -18.953125 15.21875 -19.066406 14.28125 -19.296875 C 13.34375 -19.523438 12.140625 -19.867188 10.671875 -20.328125 C 10.085938 -19.835938 9.476562 -19.117188 8.84375 -18.171875 C 8.21875 -17.222656 7.875 -16.164062 7.8125 -15 L 7.8125 -5.84375 C 7.8125 -4.1875 7.925781 -2.96875 8.15625 -2.1875 C 8.394531 -1.40625 8.894531 -0.890625 9.65625 -0.640625 L 9.65625 0 Z M 1.28125 0 "/></g></g></g><g fill="#000000" fill-opacity="1"><g transform="translate(653.086278, 138.008502)"><g/></g></g><g fill="#000000" fill-opacity="1"><g transform="translate(662.285496, 138.008502)"><g><path d="M 12.328125 0.453125 C 10.453125 0.453125 8.679688 0.0234375 7.015625 -0.828125 C 5.347656 -1.679688 4 -2.9375 2.96875 -4.59375 C 1.9375 -6.25 1.421875 -8.257812 1.421875 -10.625 C 1.421875 -12.5625 1.757812 -14.3125 2.4375 -15.875 C 3.113281 -17.4375 4.039062 -18.769531 5.21875 -19.875 C 6.394531 -20.976562 7.726562 -21.828125 9.21875 -22.421875 C 10.707031 -23.023438 12.25 -23.328125 13.84375 -23.328125 C 16.300781 -23.328125 18.296875 -23.050781 19.828125 -22.5 C 21.359375 -21.945312 22.125 -21.347656 22.125 -20.703125 C 22.125 -20.242188 21.953125 -19.78125 21.609375 -19.3125 C 21.273438 -18.851562 20.867188 -18.46875 20.390625 -18.15625 C 19.921875 -17.851562 19.457031 -17.703125 19 -17.703125 C 18.351562 -17.703125 17.484375 -18.085938 16.390625 -18.859375 C 15.304688 -19.628906 13.875 -20.859375 12.09375 -22.546875 C 10.78125 -22.359375 9.625 -21.828125 8.625 -20.953125 C 7.625 -20.078125 6.851562 -18.992188 6.3125 -17.703125 C 5.78125 -16.421875 5.515625 -15.039062 5.515625 -13.5625 C 5.515625 -11.570312 5.90625 -9.796875 6.6875 -8.234375 C 7.46875 -6.671875 8.570312 -5.453125 10 -4.578125 C 11.425781 -3.703125 13.109375 -3.265625 15.046875 -3.265625 C 16.765625 -3.265625 18.28125 -3.601562 19.59375 -4.28125 C 20.914062 -4.957031 22.050781 -5.832031 23 -6.90625 L 23.40625 -6.4375 C 22.707031 -5.363281 21.835938 -4.296875 20.796875 -3.234375 C 19.753906 -2.179688 18.523438 -1.300781 17.109375 -0.59375 C 15.703125 0.101562 14.109375 0.453125 12.328125 0.453125 Z M 12.328125 0.453125 "/></g></g></g><g fill="#000000" fill-opacity="1"><g transform="translate(686.111497, 138.008502)"><g><path d="M 13.703125 0.453125 C 12.203125 0.453125 10.722656 0.234375 9.265625 -0.203125 C 7.804688 -0.648438 6.488281 -1.34375 5.3125 -2.28125 C 4.132812 -3.21875 3.191406 -4.394531 2.484375 -5.8125 C 1.773438 -7.238281 1.421875 -8.9375 1.421875 -10.90625 C 1.421875 -12.769531 1.757812 -14.460938 2.4375 -15.984375 C 3.113281 -17.503906 4.035156 -18.804688 5.203125 -19.890625 C 6.367188 -20.984375 7.6875 -21.828125 9.15625 -22.421875 C 10.625 -23.023438 12.140625 -23.328125 13.703125 -23.328125 C 15.148438 -23.328125 16.582031 -23.109375 18 -22.671875 C 19.425781 -22.242188 20.742188 -21.5625 21.953125 -20.625 C 23.171875 -19.695312 24.140625 -18.507812 24.859375 -17.0625 C 25.578125 -15.625 25.9375 -13.894531 25.9375 -11.875 C 25.9375 -9.90625 25.5625 -8.15625 24.8125 -6.625 C 24.0625 -5.09375 23.082031 -3.804688 21.875 -2.765625 C 20.664062 -1.722656 19.335938 -0.925781 17.890625 -0.375 C 16.453125 0.175781 15.054688 0.453125 13.703125 0.453125 Z M 6.03125 -14.359375 C 6.03125 -13.003906 6.226562 -11.53125 6.625 -9.9375 C 7.019531 -8.34375 7.609375 -6.832031 8.390625 -5.40625 C 9.171875 -3.976562 10.144531 -2.8125 11.3125 -1.90625 C 12.476562 -1 13.8125 -0.546875 15.3125 -0.546875 C 16.820312 -0.546875 18.007812 -0.929688 18.875 -1.703125 C 19.75 -2.472656 20.367188 -3.453125 20.734375 -4.640625 C 21.109375 -5.835938 21.296875 -7.082031 21.296875 -8.375 C 21.296875 -9.84375 21.054688 -11.410156 20.578125 -13.078125 C 20.109375 -14.753906 19.4375 -16.328125 18.5625 -17.796875 C 17.6875 -19.273438 16.632812 -20.445312 15.40625 -21.3125 C 14.175781 -22.1875 12.828125 -22.550781 11.359375 -22.40625 C 10.046875 -22.28125 8.992188 -21.828125 8.203125 -21.046875 C 7.421875 -20.265625 6.863281 -19.28125 6.53125 -18.09375 C 6.195312 -16.914062 6.03125 -15.671875 6.03125 -14.359375 Z M 6.03125 -14.359375 "/></g></g></g><g fill="#000000" fill-opacity="1"><g transform="translate(713.939132, 138.008502)"><g><path d="M 1.28125 0 L 1.28125 -0.640625 C 2.050781 -0.890625 2.550781 -1.40625 2.78125 -2.1875 C 3.007812 -2.96875 3.125 -4.1875 3.125 -5.84375 L 3.125 -16.421875 C 3.125 -17.773438 2.960938 -18.664062 2.640625 -19.09375 C 2.316406 -19.519531 1.863281 -19.859375 1.28125 -20.109375 L 1.28125 -20.75 L 7.359375 -23.40625 L 7.8125 -23.046875 L 7.8125 -17.484375 C 8.519531 -19.140625 9.640625 -20.488281 11.171875 -21.53125 C 12.035156 -22.144531 12.921875 -22.597656 13.828125 -22.890625 C 14.734375 -23.179688 15.738281 -23.328125 16.84375 -23.328125 C 17.632812 -23.328125 18.320312 -23.21875 18.90625 -23 C 19.488281 -22.78125 19.78125 -22.425781 19.78125 -21.9375 C 19.78125 -21.601562 19.664062 -21.195312 19.4375 -20.71875 C 19.207031 -20.25 18.859375 -19.835938 18.390625 -19.484375 C 17.929688 -19.128906 17.351562 -18.953125 16.65625 -18.953125 C 16.007812 -18.953125 15.21875 -19.066406 14.28125 -19.296875 C 13.34375 -19.523438 12.140625 -19.867188 10.671875 -20.328125 C 10.085938 -19.835938 9.476562 -19.117188 8.84375 -18.171875 C 8.21875 -17.222656 7.875 -16.164062 7.8125 -15 L 7.8125 -5.84375 C 7.8125 -4.1875 7.925781 -2.96875 8.15625 -2.1875 C 8.394531 -1.40625 8.894531 -0.890625 9.65625 -0.640625 L 9.65625 0 Z M 1.28125 0 "/></g></g></g><g fill="#000000" fill-opacity="1"><g transform="translate(734.683378, 138.008502)"><g><path d="M 1.28125 0 L 1.28125 -0.640625 C 2.050781 -0.890625 2.550781 -1.40625 2.78125 -2.1875 C 3.007812 -2.96875 3.125 -4.1875 3.125 -5.84375 L 3.125 -16.421875 C 3.125 -17.773438 2.960938 -18.664062 2.640625 -19.09375 C 2.316406 -19.519531 1.863281 -19.859375 1.28125 -20.109375 L 1.28125 -20.75 L 7.359375 -23.40625 L 7.8125 -23.046875 L 7.8125 -19.1875 C 9.070312 -20.226562 10.515625 -21.175781 12.140625 -22.03125 C 13.765625 -22.894531 15.46875 -23.328125 17.25 -23.328125 C 19.363281 -23.328125 21.070312 -22.734375 22.375 -21.546875 C 23.675781 -20.367188 24.328125 -18.429688 24.328125 -15.734375 L 24.328125 -5.84375 C 24.328125 -4.1875 24.441406 -2.96875 24.671875 -2.1875 C 24.910156 -1.40625 25.410156 -0.890625 26.171875 -0.640625 L 26.171875 0 L 17.796875 0 L 17.796875 -0.640625 C 18.566406 -0.890625 19.066406 -1.40625 19.296875 -2.1875 C 19.523438 -2.96875 19.640625 -4.1875 19.640625 -5.84375 L 19.640625 -14.90625 C 19.640625 -16.988281 19.203125 -18.601562 18.328125 -19.75 C 17.453125 -20.90625 16.15625 -21.484375 14.4375 -21.484375 C 13.363281 -21.484375 12.304688 -21.222656 11.265625 -20.703125 C 10.222656 -20.179688 9.070312 -19.414062 7.8125 -18.40625 L 7.8125 -5.84375 C 7.8125 -4.1875 7.925781 -2.96875 8.15625 -2.1875 C 8.394531 -1.40625 8.894531 -0.890625 9.65625 -0.640625 L 9.65625 0 Z M 1.28125 0 "/></g></g></g><g fill="#000000" fill-opacity="1"><g transform="translate(761.775111, 138.008502)"><g><path d="M 12.328125 0.453125 C 11.035156 0.453125 9.753906 0.222656 8.484375 -0.234375 C 7.210938 -0.691406 6.039062 -1.378906 4.96875 -2.296875 C 3.894531 -3.222656 3.035156 -4.375 2.390625 -5.75 C 1.742188 -7.125 1.421875 -8.75 1.421875 -10.625 C 1.421875 -12.582031 1.765625 -14.34375 2.453125 -15.90625 C 3.148438 -17.476562 4.078125 -18.816406 5.234375 -19.921875 C 6.398438 -21.023438 7.695312 -21.867188 9.125 -22.453125 C 10.550781 -23.035156 12.019531 -23.328125 13.53125 -23.328125 C 15.613281 -23.328125 17.359375 -22.910156 18.765625 -22.078125 C 20.179688 -21.253906 21.25 -20.210938 21.96875 -18.953125 C 22.6875 -17.691406 23.046875 -16.390625 23.046875 -15.046875 L 5.609375 -15.046875 C 5.578125 -14.796875 5.550781 -14.546875 5.53125 -14.296875 C 5.519531 -14.054688 5.515625 -13.8125 5.515625 -13.5625 C 5.515625 -11.570312 5.90625 -9.796875 6.6875 -8.234375 C 7.46875 -6.671875 8.570312 -5.453125 10 -4.578125 C 11.425781 -3.703125 13.109375 -3.265625 15.046875 -3.265625 C 16.765625 -3.265625 18.28125 -3.601562 19.59375 -4.28125 C 20.914062 -4.957031 22.050781 -5.832031 23 -6.90625 L 23.40625 -6.4375 C 22.707031 -5.363281 21.835938 -4.296875 20.796875 -3.234375 C 19.753906 -2.179688 18.523438 -1.300781 17.109375 -0.59375 C 15.703125 0.101562 14.109375 0.453125 12.328125 0.453125 Z M 5.65625 -15.6875 L 18.40625 -15.6875 C 18.21875 -16.945312 17.820312 -18.085938 17.21875 -19.109375 C 16.625 -20.140625 15.890625 -20.960938 15.015625 -21.578125 C 14.140625 -22.191406 13.164062 -22.5 12.09375 -22.5 C 10.8125 -22.53125 9.722656 -22.222656 8.828125 -21.578125 C 7.941406 -20.929688 7.238281 -20.085938 6.71875 -19.046875 C 6.195312 -18.003906 5.84375 -16.882812 5.65625 -15.6875 Z M 5.65625 -15.6875 "/></g></g></g><g fill="#000000" fill-opacity="1"><g transform="translate(786.337014, 138.008502)"><g><path d="M 1.28125 0 L 1.28125 -0.640625 C 2.050781 -0.890625 2.550781 -1.40625 2.78125 -2.1875 C 3.007812 -2.96875 3.125 -4.1875 3.125 -5.84375 L 3.125 -16.421875 C 3.125 -17.773438 2.960938 -18.664062 2.640625 -19.09375 C 2.316406 -19.519531 1.863281 -19.859375 1.28125 -20.109375 L 1.28125 -20.75 L 7.359375 -23.40625 L 7.8125 -23.046875 L 7.8125 -17.484375 C 8.519531 -19.140625 9.640625 -20.488281 11.171875 -21.53125 C 12.035156 -22.144531 12.921875 -22.597656 13.828125 -22.890625 C 14.734375 -23.179688 15.738281 -23.328125 16.84375 -23.328125 C 17.632812 -23.328125 18.320312 -23.21875 18.90625 -23 C 19.488281 -22.78125 19.78125 -22.425781 19.78125 -21.9375 C 19.78125 -21.601562 19.664062 -21.195312 19.4375 -20.71875 C 19.207031 -20.25 18.859375 -19.835938 18.390625 -19.484375 C 17.929688 -19.128906 17.351562 -18.953125 16.65625 -18.953125 C 16.007812 -18.953125 15.21875 -19.066406 14.28125 -19.296875 C 13.34375 -19.523438 12.140625 -19.867188 10.671875 -20.328125 C 10.085938 -19.835938 9.476562 -19.117188 8.84375 -18.171875 C 8.21875 -17.222656 7.875 -16.164062 7.8125 -15 L 7.8125 -5.84375 C 7.8125 -4.1875 7.925781 -2.96875 8.15625 -2.1875 C 8.394531 -1.40625 8.894531 -0.890625 9.65625 -0.640625 L 9.65625 0 Z M 1.28125 0 "/></g></g></g><g fill="#000000" fill-opacity="1"><g transform="translate(807.081306, 138.008502)"><g/></g></g><g fill="#000000" fill-opacity="1"><g transform="translate(816.280524, 138.008502)"><g><path d="M 13.703125 0.453125 C 12.203125 0.453125 10.722656 0.234375 9.265625 -0.203125 C 7.804688 -0.648438 6.488281 -1.34375 5.3125 -2.28125 C 4.132812 -3.21875 3.191406 -4.394531 2.484375 -5.8125 C 1.773438 -7.238281 1.421875 -8.9375 1.421875 -10.90625 C 1.421875 -12.769531 1.757812 -14.460938 2.4375 -15.984375 C 3.113281 -17.503906 4.035156 -18.804688 5.203125 -19.890625 C 6.367188 -20.984375 7.6875 -21.828125 9.15625 -22.421875 C 10.625 -23.023438 12.140625 -23.328125 13.703125 -23.328125 C 15.148438 -23.328125 16.582031 -23.109375 18 -22.671875 C 19.425781 -22.242188 20.742188 -21.5625 21.953125 -20.625 C 23.171875 -19.695312 24.140625 -18.507812 24.859375 -17.0625 C 25.578125 -15.625 25.9375 -13.894531 25.9375 -11.875 C 25.9375 -9.90625 25.5625 -8.15625 24.8125 -6.625 C 24.0625 -5.09375 23.082031 -3.804688 21.875 -2.765625 C 20.664062 -1.722656 19.335938 -0.925781 17.890625 -0.375 C 16.453125 0.175781 15.054688 0.453125 13.703125 0.453125 Z M 6.03125 -14.359375 C 6.03125 -13.003906 6.226562 -11.53125 6.625 -9.9375 C 7.019531 -8.34375 7.609375 -6.832031 8.390625 -5.40625 C 9.171875 -3.976562 10.144531 -2.8125 11.3125 -1.90625 C 12.476562 -1 13.8125 -0.546875 15.3125 -0.546875 C 16.820312 -0.546875 18.007812 -0.929688 18.875 -1.703125 C 19.75 -2.472656 20.367188 -3.453125 20.734375 -4.640625 C 21.109375 -5.835938 21.296875 -7.082031 21.296875 -8.375 C 21.296875 -9.84375 21.054688 -11.410156 20.578125 -13.078125 C 20.109375 -14.753906 19.4375 -16.328125 18.5625 -17.796875 C 17.6875 -19.273438 16.632812 -20.445312 15.40625 -21.3125 C 14.175781 -22.1875 12.828125 -22.550781 11.359375 -22.40625 C 10.046875 -22.28125 8.992188 -21.828125 8.203125 -21.046875 C 7.421875 -20.265625 6.863281 -19.28125 6.53125 -18.09375 C 6.195312 -16.914062 6.03125 -15.671875 6.03125 -14.359375 Z M 6.03125 -14.359375 "/></g></g></g><g fill="#000000" fill-opacity="1"><g transform="translate(844.108158, 138.008502)"><g><path d="M 1.609375 0 L 1.609375 -0.640625 C 2.378906 -0.890625 2.878906 -1.40625 3.109375 -2.1875 C 3.335938 -2.96875 3.453125 -4.1875 3.453125 -5.84375 L 3.453125 -21.671875 L 0.78125 -21.671875 L 1.015625 -22.40625 L 3.453125 -22.40625 C 3.546875 -24.09375 4.015625 -25.738281 4.859375 -27.34375 C 5.703125 -28.957031 6.816406 -30.40625 8.203125 -31.6875 C 9.597656 -32.976562 11.1875 -34.003906 12.96875 -34.765625 C 14.75 -35.535156 16.601562 -35.921875 18.53125 -35.921875 C 19.519531 -35.921875 20.3125 -35.820312 20.90625 -35.625 C 21.5 -35.425781 21.796875 -35.097656 21.796875 -34.640625 C 21.796875 -34.328125 21.648438 -33.925781 21.359375 -33.4375 C 21.078125 -32.945312 20.679688 -32.507812 20.171875 -32.125 C 19.660156 -31.75 19.054688 -31.5625 18.359375 -31.5625 C 17.191406 -31.5625 16.054688 -31.707031 14.953125 -32 C 13.847656 -32.289062 12.570312 -32.710938 11.125 -33.265625 C 10.695312 -33.046875 10.253906 -32.710938 9.796875 -32.265625 C 9.335938 -31.828125 8.945312 -31.171875 8.625 -30.296875 C 8.300781 -29.421875 8.140625 -28.1875 8.140625 -26.59375 L 8.140625 -22.40625 L 13.890625 -22.40625 L 13.65625 -21.671875 L 8.140625 -21.671875 L 8.140625 -5.84375 C 8.140625 -4.1875 8.253906 -2.96875 8.484375 -2.1875 C 8.710938 -1.40625 9.210938 -0.890625 9.984375 -0.640625 L 9.984375 0 Z M 1.609375 0 "/></g></g></g><g fill="#000000" fill-opacity="1"><g transform="translate(858.596972, 138.008502)"><g/></g></g><g fill="#000000" fill-opacity="1"><g transform="translate(867.796144, 138.008502)"><g><path d="M 1.28125 0 L 1.28125 -0.640625 C 2.050781 -0.890625 2.550781 -1.40625 2.78125 -2.1875 C 3.007812 -2.96875 3.125 -4.1875 3.125 -5.84375 L 3.125 -16.421875 C 3.125 -17.773438 2.960938 -18.664062 2.640625 -19.09375 C 2.316406 -19.519531 1.863281 -19.859375 1.28125 -20.109375 L 1.28125 -20.75 L 7.359375 -23.40625 L 7.8125 -23.046875 L 7.8125 -5.84375 C 7.8125 -4.1875 7.925781 -2.96875 8.15625 -2.1875 C 8.394531 -1.40625 8.894531 -0.890625 9.65625 -0.640625 L 9.65625 0 Z M 2.0625 -28.109375 C 2.0625 -28.992188 2.367188 -29.742188 2.984375 -30.359375 C 3.597656 -30.972656 4.335938 -31.28125 5.203125 -31.28125 C 6.117188 -31.28125 6.867188 -30.972656 7.453125 -30.359375 C 8.035156 -29.742188 8.328125 -28.992188 8.328125 -28.109375 C 8.328125 -27.242188 8.023438 -26.503906 7.421875 -25.890625 C 6.828125 -25.285156 6.085938 -24.984375 5.203125 -24.984375 C 4.335938 -24.984375 3.597656 -25.285156 2.984375 -25.890625 C 2.367188 -26.503906 2.0625 -27.242188 2.0625 -28.109375 Z M 2.0625 -28.109375 "/></g></g></g><g fill="#000000" fill-opacity="1"><g transform="translate(878.835298, 138.008502)"><g><path d="M 8.640625 0.453125 C 7.078125 0.453125 5.890625 -0.0820312 5.078125 -1.15625 C 4.265625 -2.226562 3.859375 -4.003906 3.859375 -6.484375 L 3.859375 -22.265625 L 0.921875 -22.265625 L 0.921875 -23 L 7.8125 -29.078125 L 8.5625 -29.078125 L 8.5625 -23 L 15.6875 -23 L 15.5 -22.265625 L 8.5625 -22.265625 L 8.5625 -6.4375 C 8.5625 -5.03125 8.820312 -3.992188 9.34375 -3.328125 C 9.863281 -2.671875 10.628906 -2.34375 11.640625 -2.34375 C 12.160156 -2.34375 12.78125 -2.488281 13.5 -2.78125 C 14.21875 -3.070312 14.960938 -3.691406 15.734375 -4.640625 L 16.1875 -4.1875 C 14.96875 -2.769531 13.75 -1.640625 12.53125 -0.796875 C 11.320312 0.0351562 10.023438 0.453125 8.640625 0.453125 Z M 8.640625 0.453125 "/></g></g></g><g fill="#000000" fill-opacity="1"><g transform="translate(895.209869, 138.008502)"><g><path d="M 5.25 0.328125 C 4.507812 0.328125 3.867188 0.0507812 3.328125 -0.5 C 2.796875 -1.050781 2.53125 -1.710938 2.53125 -2.484375 C 2.53125 -3.253906 2.796875 -3.90625 3.328125 -4.4375 C 3.867188 -4.976562 4.507812 -5.25 5.25 -5.25 C 5.976562 -5.25 6.601562 -4.976562 7.125 -4.4375 C 7.644531 -3.90625 7.90625 -3.253906 7.90625 -2.484375 C 7.90625 -1.710938 7.644531 -1.050781 7.125 -0.5 C 6.601562 0.0507812 5.976562 0.328125 5.25 0.328125 Z M 5.25 0.328125 "/></g></g></g></g></g></g></g></g></g></mask><clipPath id="0367991bcf"><path d="M 0.0859375 0.757812 L 997.585938 0.757812 L 997.585938 249.007812 L 0.0859375 249.007812 Z M 0.0859375 0.757812 " clip-rule="nonzero"/></clipPath><clipPath id="dbc3577763"><rect x="0" width="998" y="0" height="250"/></clipPath><clipPath id="6e7d9f8173"><rect x="0" width="998" y="0" height="250"/></clipPath></defs><g fill="#a6a6a6" fill-opacity="1"><g transform="translate(267.996104, 685.251041)"><g><path d="M 184.648438 -135.109375 L 184.648438 -133.722656 L 167.328125 -133.722656 L 167.328125 -135.109375 Z M 167.328125 -135.109375 L 184.648438 -135.109375 L 184.648438 -133.722656 L 167.328125 -133.722656 Z M 187.304688 -15.128906 C 189.628906 -12.03125 190.492188 -8.09375 189.894531 -3.3125 L 189.863281 -3.101562 C 189.316406 0.539062 187.800781 3.445312 185.308594 5.613281 C 182.792969 7.796875 179.6875 8.890625 175.988281 8.890625 L 150.582031 8.890625 C 146.65625 8.890625 143.308594 7.851562 140.535156 5.773438 L 145.734375 -1.15625 L 140.929688 6.050781 C 139.433594 5.054688 138.160156 3.71875 137.117188 2.050781 C 136.863281 1.640625 136.578125 1.226562 136.261719 0.808594 L 135.925781 0.355469 L 93.84375 -74.269531 L 101.390625 -78.523438 L 101.390625 -69.863281 L 52.65625 -69.863281 L 52.65625 -78.523438 L 61.320312 -78.523438 L 61.320312 -7.851562 C 61.320312 -0.960938 59.054688 3.777344 54.53125 6.363281 C 51.582031 8.050781 48.800781 8.890625 46.191406 8.890625 L 25.175781 8.890625 C 22.625 8.890625 19.855469 8.078125 16.871094 6.449219 C 12.167969 3.882812 9.816406 -0.882812 9.816406 -7.851562 L 9.816406 -104.855469 C 9.816406 -111.964844 12.257812 -116.738281 17.144531 -119.183594 C 20.054688 -120.640625 22.734375 -121.367188 25.175781 -121.367188 L 125.640625 -121.367188 C 128.4375 -121.367188 130.132812 -121.800781 130.722656 -122.667969 L 130.796875 -122.773438 L 130.875 -122.882812 C 132.234375 -124.75 132.914062 -128.59375 132.914062 -134.414062 C 132.914062 -140.238281 132.234375 -144.082031 130.875 -145.949219 L 130.796875 -146.058594 L 130.722656 -146.164062 C 130.132812 -147.03125 128.4375 -147.464844 125.640625 -147.464844 L 25.175781 -147.464844 C 22.734375 -147.464844 20.054688 -148.191406 17.144531 -149.648438 C 12.257812 -152.09375 9.816406 -156.867188 9.816406 -163.976562 L 9.816406 -182.222656 C 9.816406 -189.488281 12.257812 -194.339844 17.144531 -196.785156 C 20.054688 -198.238281 22.734375 -198.96875 25.175781 -198.96875 L 131.644531 -198.96875 C 150.5 -198.96875 164.257812 -192.8125 172.910156 -180.507812 C 180.566406 -169.46875 184.480469 -154.128906 184.648438 -134.492188 C 184.480469 -114.75 180.578125 -99.378906 172.941406 -88.371094 L 172.882812 -88.28125 L 172.820312 -88.195312 C 165.488281 -78.167969 154.886719 -72.308594 141.003906 -70.621094 L 139.957031 -79.21875 L 147.441406 -83.582031 L 187.855469 -14.296875 L 180.375 -9.929688 Z M 173.148438 -5.136719 L 125.84375 -86.226562 L 138.914062 -87.816406 C 147.820312 -88.898438 154.460938 -92.433594 158.832031 -98.414062 L 165.824219 -93.304688 L 158.707031 -98.242188 C 164.316406 -106.324219 167.1875 -118.359375 167.328125 -134.339844 C 167.1875 -150.421875 164.328125 -162.492188 158.742188 -170.542969 C 153.535156 -177.945312 144.503906 -181.644531 131.644531 -181.644531 L 25.175781 -181.644531 C 25.496094 -181.644531 25.726562 -181.667969 25.855469 -181.707031 C 25.625 -181.636719 25.304688 -181.496094 24.890625 -181.289062 C 26.078125 -181.882812 26.855469 -182.675781 27.226562 -183.671875 C 27.167969 -183.511719 27.136719 -183.03125 27.136719 -182.222656 L 27.136719 -163.976562 C 27.136719 -163.515625 27.160156 -163.136719 27.203125 -162.839844 L 27.191406 -162.796875 C 26.808594 -163.785156 26.042969 -164.566406 24.890625 -165.140625 C 25.304688 -164.933594 25.625 -164.796875 25.855469 -164.726562 C 25.726562 -164.765625 25.496094 -164.785156 25.175781 -164.785156 L 125.640625 -164.785156 C 134.542969 -164.785156 141.007812 -161.832031 145.035156 -155.921875 L 137.878906 -151.042969 L 144.882812 -156.140625 C 148.453125 -151.234375 150.238281 -143.992188 150.238281 -134.414062 C 150.238281 -124.839844 148.453125 -117.597656 144.882812 -112.691406 L 137.878906 -117.785156 L 145.035156 -112.90625 C 141.007812 -107 134.542969 -104.046875 125.640625 -104.046875 L 25.175781 -104.046875 C 25.496094 -104.046875 25.726562 -104.066406 25.855469 -104.105469 C 25.628906 -104.035156 25.304688 -103.894531 24.890625 -103.6875 C 26.042969 -104.265625 26.808594 -105.046875 27.191406 -106.035156 L 27.203125 -105.992188 C 27.160156 -105.695312 27.136719 -105.316406 27.136719 -104.855469 L 27.136719 -7.851562 C 27.136719 -7.140625 27.160156 -6.71875 27.210938 -6.59375 C 26.875 -7.476562 26.195312 -8.195312 25.164062 -8.757812 C 25.558594 -8.542969 25.859375 -8.402344 26.066406 -8.332031 C 25.871094 -8.398438 25.570312 -8.429688 25.175781 -8.429688 L 46.191406 -8.429688 C 45.765625 -8.429688 45.4375 -8.390625 45.199219 -8.308594 C 45.355469 -8.363281 45.601562 -8.484375 45.9375 -8.675781 C 44.902344 -8.082031 44.226562 -7.347656 43.90625 -6.46875 C 43.96875 -6.632812 43.996094 -7.09375 43.996094 -7.851562 L 43.996094 -87.1875 L 106.449219 -87.1875 L 150.738281 -8.640625 L 143.191406 -4.386719 L 150.121094 -9.585938 C 150.730469 -8.773438 151.292969 -7.953125 151.808594 -7.128906 C 151.53125 -7.570312 151.109375 -7.980469 150.535156 -8.359375 L 150.738281 -8.226562 L 150.929688 -8.082031 C 150.691406 -8.261719 150.464844 -8.382812 150.25 -8.441406 L 150.25 -8.445312 C 150.339844 -8.4375 150.449219 -8.429688 150.582031 -8.429688 L 175.988281 -8.429688 C 175.367188 -8.429688 174.6875 -8.105469 173.941406 -7.460938 C 173.492188 -7.066406 173.144531 -6.625 172.910156 -6.136719 C 172.808594 -5.925781 172.75 -5.769531 172.734375 -5.671875 L 181.300781 -4.386719 L 172.707031 -5.460938 C 172.753906 -5.859375 172.773438 -6.105469 172.757812 -6.199219 C 172.832031 -5.734375 173.0625 -5.246094 173.445312 -4.734375 Z M 173.148438 -5.136719 "/></g></g></g><g fill="#a6a6a6" fill-opacity="1"><g transform="translate(479.550513, 685.251041)"><g><path d="M 157.28125 -50.003906 C 159.722656 -50.003906 162.398438 -49.273438 165.3125 -47.816406 C 170.195312 -45.375 172.640625 -40.597656 172.640625 -33.488281 L 172.640625 -8.082031 C 172.640625 -0.972656 170.195312 3.800781 165.3125 6.246094 C 162.398438 7.703125 159.722656 8.429688 157.28125 8.429688 L 75.292969 8.429688 C 69.800781 8.429688 64.695312 8.09375 59.976562 7.417969 C 55.003906 6.707031 50.433594 5.539062 46.269531 3.910156 L 49.425781 -4.15625 L 46.585938 4.023438 C 37.398438 0.839844 30.042969 -4.371094 24.523438 -11.605469 C 19.132812 -18.613281 15.300781 -27.289062 13.019531 -37.628906 C 12.183594 -41.820312 11.480469 -46.339844 10.914062 -51.191406 C 10.34375 -56.0625 9.980469 -61.320312 9.820312 -66.960938 L 9.816406 -67.085938 L 9.816406 -68.363281 L 10.296875 -98.691406 L 10.582031 -99.742188 C 11.238281 -102.144531 12.363281 -104.742188 13.957031 -107.535156 C 16.367188 -111.804688 19.511719 -115.136719 23.394531 -117.535156 C 27.234375 -119.90625 31.644531 -121.253906 36.621094 -121.578125 L 36.894531 -121.597656 L 156.339844 -121.828125 C 158.636719 -121.828125 161.242188 -121.101562 164.15625 -119.644531 C 169.042969 -117.203125 171.484375 -112.425781 171.484375 -105.316406 L 171.484375 -87.070312 C 171.484375 -80.101562 169.132812 -75.335938 164.429688 -72.769531 C 161.445312 -71.140625 158.753906 -70.324219 156.355469 -70.324219 L 53.121094 -70.324219 L 53.121094 -78.988281 L 61.773438 -78.59375 L 61.65625 -76.054688 C 61.582031 -74.386719 61.503906 -72.492188 61.429688 -70.363281 C 61.355469 -68.308594 61.320312 -66.488281 61.320312 -64.898438 L 61.320312 -62.359375 L 52.65625 -62.359375 L 61.058594 -64.457031 C 61.386719 -63.152344 61.550781 -61.796875 61.550781 -60.394531 C 61.550781 -60.414062 61.539062 -60.457031 61.523438 -60.53125 L 61.628906 -60.097656 L 61.695312 -59.65625 C 62.097656 -56.839844 62.839844 -54.71875 63.925781 -53.300781 C 64.726562 -52.300781 65.789062 -51.546875 67.113281 -51.03125 L 63.972656 -42.957031 L 66.253906 -51.3125 C 67.648438 -50.933594 69.152344 -50.613281 70.769531 -50.355469 C 72.242188 -50.121094 73.980469 -50.003906 75.984375 -50.003906 Z M 157.28125 -32.679688 L 75.984375 -32.679688 C 73.0625 -32.679688 70.410156 -32.871094 68.035156 -33.25 C 65.800781 -33.609375 63.6875 -34.058594 61.695312 -34.601562 L 61.257812 -34.722656 L 60.835938 -34.886719 C 56.617188 -36.527344 53.0625 -39.15625 50.164062 -42.777344 C 47.25 -46.59375 45.375 -51.402344 44.546875 -57.207031 L 53.121094 -58.429688 L 44.71875 -56.332031 C 44.390625 -57.636719 44.226562 -58.992188 44.226562 -60.394531 C 44.226562 -60.375 44.238281 -60.332031 44.253906 -60.257812 L 43.996094 -61.292969 L 43.996094 -64.898438 C 43.996094 -66.695312 44.035156 -68.722656 44.117188 -70.980469 C 44.195312 -73.164062 44.273438 -75.117188 44.351562 -76.839844 L 44.84375 -87.648438 L 156.355469 -87.648438 C 155.828125 -87.648438 155.425781 -87.597656 155.148438 -87.5 C 155.367188 -87.578125 155.695312 -87.734375 156.136719 -87.976562 C 155.105469 -87.414062 154.425781 -86.691406 154.089844 -85.8125 C 154.136719 -85.9375 154.164062 -86.359375 154.164062 -87.070312 L 154.164062 -105.316406 C 154.164062 -105.777344 154.140625 -106.15625 154.097656 -106.453125 L 154.109375 -106.5 C 154.488281 -105.511719 155.257812 -104.726562 156.410156 -104.152344 C 155.953125 -104.378906 155.605469 -104.53125 155.363281 -104.609375 C 155.578125 -104.542969 155.914062 -104.507812 156.375 -104.507812 L 37.199219 -104.277344 L 37.183594 -112.9375 L 37.746094 -104.292969 C 35.640625 -104.15625 33.890625 -103.65625 32.496094 -102.796875 C 31.144531 -101.960938 29.976562 -100.675781 29 -98.941406 C 28.132812 -97.421875 27.5625 -96.167969 27.292969 -95.183594 L 18.9375 -97.464844 L 27.597656 -97.324219 L 27.136719 -68.363281 L 27.136719 -67.207031 L 18.476562 -67.207031 L 27.132812 -67.457031 C 27.28125 -62.320312 27.609375 -57.566406 28.117188 -53.199219 C 28.628906 -48.8125 29.234375 -44.867188 29.9375 -41.355469 C 31.660156 -33.53125 34.449219 -27.117188 38.296875 -22.113281 C 41.707031 -17.644531 46.363281 -14.386719 52.261719 -12.339844 L 52.421875 -12.285156 L 52.582031 -12.222656 C 55.496094 -11.082031 58.78125 -10.25 62.429688 -9.730469 C 66.332031 -9.171875 70.621094 -8.890625 75.292969 -8.890625 L 157.28125 -8.890625 C 156.957031 -8.890625 156.730469 -8.871094 156.597656 -8.832031 C 156.828125 -8.902344 157.148438 -9.039062 157.5625 -9.246094 C 156.410156 -8.671875 155.644531 -7.890625 155.261719 -6.902344 L 155.25 -6.945312 C 155.296875 -7.242188 155.316406 -7.621094 155.316406 -8.082031 L 155.316406 -33.488281 C 155.316406 -33.949219 155.296875 -34.328125 155.25 -34.625 L 155.261719 -34.671875 C 155.644531 -33.683594 156.410156 -32.898438 157.5625 -32.324219 C 157.148438 -32.53125 156.828125 -32.671875 156.597656 -32.742188 C 156.730469 -32.699219 156.957031 -32.679688 157.28125 -32.679688 Z M 157.511719 -199.429688 C 159.90625 -199.429688 162.597656 -198.617188 165.585938 -196.988281 C 170.289062 -194.421875 172.640625 -189.65625 172.640625 -182.683594 L 172.640625 -164.441406 C 172.640625 -157.472656 170.289062 -152.703125 165.585938 -150.140625 C 162.597656 -148.511719 159.90625 -147.695312 157.511719 -147.695312 L 24.695312 -147.925781 C 22.363281 -147.925781 19.757812 -148.679688 16.882812 -150.183594 C 12.171875 -152.652344 9.816406 -157.40625 9.816406 -164.441406 L 9.816406 -182.453125 C 9.816406 -189.5 12.078125 -194.316406 16.605469 -196.902344 C 19.550781 -198.585938 22.253906 -199.429688 24.710938 -199.429688 Z M 157.511719 -182.109375 L 24.710938 -182.109375 C 25.265625 -182.109375 25.707031 -182.167969 26.027344 -182.28125 C 25.855469 -182.21875 25.578125 -182.082031 25.199219 -181.863281 C 26.261719 -182.472656 26.949219 -183.214844 27.257812 -184.097656 C 27.175781 -183.867188 27.136719 -183.320312 27.136719 -182.453125 L 27.136719 -164.441406 C 27.136719 -163.699219 27.160156 -163.261719 27.210938 -163.132812 C 26.84375 -164.121094 26.082031 -164.921875 24.921875 -165.53125 C 25.316406 -165.324219 25.613281 -165.1875 25.804688 -165.121094 C 25.550781 -165.207031 25.191406 -165.25 24.726562 -165.25 L 157.511719 -165.015625 C 156.984375 -165.015625 156.582031 -164.96875 156.304688 -164.871094 C 156.519531 -164.945312 156.851562 -165.105469 157.289062 -165.347656 C 156.261719 -164.785156 155.578125 -164.0625 155.246094 -163.179688 C 155.292969 -163.308594 155.316406 -163.726562 155.316406 -164.441406 L 155.316406 -182.683594 C 155.316406 -183.398438 155.292969 -183.816406 155.246094 -183.945312 C 155.578125 -183.0625 156.261719 -182.339844 157.289062 -181.78125 C 156.851562 -182.019531 156.519531 -182.179688 156.304688 -182.253906 C 156.582031 -182.15625 156.984375 -182.109375 157.511719 -182.109375 Z M 157.511719 -182.109375 "/></g></g></g><g fill="#a6a6a6" fill-opacity="1"><g transform="translate(673.552344, 685.251041)"><g><path d="M 202.546875 -201.507812 C 206.632812 -201.507812 209.90625 -200.277344 212.367188 -197.816406 C 214.269531 -195.917969 215.488281 -193.882812 216.03125 -191.714844 L 207.628906 -189.613281 L 215.925781 -192.101562 C 216.964844 -188.632812 216.648438 -184.804688 214.976562 -180.625 L 150.765625 -20.789062 C 146.667969 -10.984375 142.480469 -4.246094 138.203125 -0.582031 L 132.566406 -7.160156 L 138.691406 -1.035156 C 137.261719 0.398438 135.355469 1.707031 132.976562 2.898438 L 129.105469 -4.851562 L 134.117188 2.214844 C 127.84375 6.664062 120.859375 8.890625 113.167969 8.890625 C 104.9375 8.890625 97.476562 6.394531 90.78125 1.398438 C 84.035156 -3.636719 79.550781 -10.1875 77.332031 -18.257812 L 85.683594 -20.554688 L 77.46875 -17.816406 C 77.445312 -17.890625 77.371094 -18.050781 77.246094 -18.296875 L 76.167969 -20.453125 L 11.371094 -180.589844 C 9.691406 -184.792969 9.371094 -188.632812 10.410156 -192.101562 L 10.449219 -192.226562 L 10.492188 -192.351562 C 10.980469 -193.824219 11.910156 -195.390625 13.273438 -197.0625 C 15.699219 -200.027344 19.128906 -201.507812 23.558594 -201.507812 L 48.5 -201.507812 C 52.117188 -201.507812 55.238281 -200.527344 57.855469 -198.5625 C 60.484375 -196.589844 62.300781 -193.859375 63.296875 -190.375 L 54.96875 -187.996094 L 63.003906 -191.230469 L 120.511719 -48.269531 L 112.476562 -45.035156 L 118.597656 -51.160156 C 120.445312 -49.316406 121.367188 -47.121094 121.367188 -44.574219 L 121.367188 -44.34375 L 112.707031 -44.34375 L 110.605469 -52.746094 L 111.527344 -52.976562 L 113.628906 -44.574219 L 107.503906 -50.699219 L 107.621094 -50.8125 C 106.007812 -49.199219 105.199219 -47.273438 105.199219 -45.035156 L 105.199219 -46.6875 L 162.4375 -191.296875 L 162.484375 -191.410156 C 163.804688 -194.492188 165.671875 -196.90625 168.078125 -198.648438 C 170.710938 -200.554688 173.730469 -201.507812 177.140625 -201.507812 Z M 202.546875 -184.1875 L 177.140625 -184.1875 C 177.472656 -184.1875 177.839844 -184.332031 178.238281 -184.621094 C 178.394531 -184.734375 178.511719 -184.839844 178.585938 -184.941406 C 178.542969 -184.882812 178.480469 -184.765625 178.40625 -184.585938 L 170.445312 -187.996094 L 178.496094 -184.808594 L 121.914062 -41.847656 L 113.859375 -45.035156 L 122.523438 -45.035156 C 122.523438 -42.492188 121.636719 -40.332031 119.871094 -38.566406 L 118.058594 -36.753906 L 104.046875 -33.25 L 104.046875 -44.574219 C 104.046875 -42.335938 104.8125 -40.449219 106.351562 -38.910156 L 105.101562 -40.164062 L 46.761719 -185.183594 L 46.640625 -185.617188 C 46.628906 -185.652344 46.625 -185.675781 46.621094 -185.675781 C 46.648438 -185.617188 46.683594 -185.550781 46.730469 -185.476562 C 46.914062 -185.191406 47.15625 -184.933594 47.460938 -184.707031 C 47.761719 -184.480469 48.070312 -184.320312 48.386719 -184.230469 C 48.464844 -184.207031 48.53125 -184.191406 48.585938 -184.183594 C 48.574219 -184.1875 48.546875 -184.1875 48.5 -184.1875 L 23.558594 -184.1875 C 23.703125 -184.1875 23.949219 -184.246094 24.289062 -184.367188 C 25.210938 -184.695312 26.007812 -185.269531 26.679688 -186.09375 C 26.539062 -185.917969 26.449219 -185.804688 26.410156 -185.746094 C 26.597656 -186.035156 26.769531 -186.410156 26.925781 -186.875 L 18.707031 -189.613281 L 27.003906 -187.125 C 27.117188 -187.507812 27.160156 -187.816406 27.132812 -188.046875 C 27.160156 -187.839844 27.257812 -187.519531 27.429688 -187.089844 L 92.097656 -27.269531 L 84.066406 -24.019531 L 91.8125 -27.894531 L 92.738281 -26.046875 C 93.230469 -25.0625 93.617188 -24.144531 93.902344 -23.292969 L 93.972656 -23.074219 L 94.035156 -22.851562 C 95.203125 -18.605469 97.574219 -15.148438 101.140625 -12.484375 C 104.761719 -9.78125 108.773438 -8.429688 113.167969 -8.429688 C 117.179688 -8.429688 120.820312 -9.589844 124.089844 -11.914062 L 124.632812 -12.296875 L 125.230469 -12.597656 C 125.933594 -12.949219 126.335938 -13.175781 126.445312 -13.285156 L 126.679688 -13.519531 L 126.929688 -13.734375 C 129.125 -15.613281 131.710938 -20.121094 134.695312 -27.246094 L 198.894531 -187.058594 C 199.074219 -187.507812 199.175781 -187.839844 199.203125 -188.046875 C 199.175781 -187.816406 199.21875 -187.507812 199.332031 -187.125 L 199.273438 -187.316406 L 199.226562 -187.511719 C 199.390625 -186.851562 199.636719 -186.277344 199.960938 -185.792969 C 200.023438 -185.695312 200.082031 -185.617188 200.136719 -185.550781 L 200.117188 -185.570312 C 200.738281 -184.949219 201.417969 -184.523438 202.160156 -184.292969 C 202.324219 -184.238281 202.472656 -184.203125 202.601562 -184.1875 Z M 202.546875 -184.1875 "/></g></g></g><g fill="#a6a6a6" fill-opacity="1"><g transform="translate(911.435576, 685.251041)"><g><path d="M 46.191406 -198.96875 C 48.585938 -198.96875 51.277344 -198.152344 54.265625 -196.523438 C 58.96875 -193.960938 61.320312 -189.191406 61.320312 -182.222656 L 61.320312 -7.851562 C 61.320312 -0.882812 58.96875 3.882812 54.265625 6.449219 C 51.277344 8.078125 48.585938 8.890625 46.191406 8.890625 L 24.941406 8.890625 C 22.546875 8.890625 19.855469 8.078125 16.871094 6.449219 C 12.167969 3.882812 9.816406 -0.882812 9.816406 -7.851562 L 9.816406 -182.222656 C 9.816406 -189.191406 12.167969 -193.960938 16.871094 -196.523438 C 19.855469 -198.152344 22.546875 -198.96875 24.941406 -198.96875 Z M 46.191406 -181.644531 L 24.941406 -181.644531 C 25.46875 -181.644531 25.871094 -181.695312 26.152344 -181.792969 C 25.933594 -181.714844 25.605469 -181.558594 25.164062 -181.316406 C 26.195312 -181.878906 26.875 -182.601562 27.210938 -183.480469 C 27.160156 -183.355469 27.136719 -182.9375 27.136719 -182.222656 L 27.136719 -7.851562 C 27.136719 -7.140625 27.160156 -6.71875 27.210938 -6.59375 C 26.875 -7.476562 26.195312 -8.195312 25.164062 -8.757812 C 25.605469 -8.519531 25.933594 -8.359375 26.152344 -8.28125 C 25.871094 -8.382812 25.46875 -8.429688 24.941406 -8.429688 L 46.191406 -8.429688 C 45.664062 -8.429688 45.261719 -8.382812 44.984375 -8.28125 C 45.199219 -8.359375 45.53125 -8.519531 45.96875 -8.757812 C 44.941406 -8.195312 44.257812 -7.476562 43.925781 -6.59375 C 43.972656 -6.71875 43.996094 -7.140625 43.996094 -7.851562 L 43.996094 -182.222656 C 43.996094 -182.9375 43.972656 -183.355469 43.925781 -183.480469 C 44.257812 -182.601562 44.941406 -181.878906 45.96875 -181.316406 C 45.53125 -181.558594 45.199219 -181.714844 44.984375 -181.792969 C 45.261719 -181.695312 45.664062 -181.644531 46.191406 -181.644531 Z M 46.191406 -181.644531 "/></g></g></g><g fill="#a6a6a6" fill-opacity="1"><g transform="translate(994.117301, 685.251041)"><g><path d="M 202.546875 -201.507812 C 206.632812 -201.507812 209.90625 -200.277344 212.367188 -197.816406 C 214.269531 -195.917969 215.488281 -193.882812 216.03125 -191.714844 L 207.628906 -189.613281 L 215.925781 -192.101562 C 216.964844 -188.632812 216.648438 -184.804688 214.976562 -180.625 L 150.765625 -20.789062 C 146.667969 -10.984375 142.480469 -4.246094 138.203125 -0.582031 L 132.566406 -7.160156 L 138.691406 -1.035156 C 137.261719 0.398438 135.355469 1.707031 132.976562 2.898438 L 129.105469 -4.851562 L 134.117188 2.214844 C 127.84375 6.664062 120.859375 8.890625 113.167969 8.890625 C 104.9375 8.890625 97.476562 6.394531 90.78125 1.398438 C 84.035156 -3.636719 79.550781 -10.1875 77.332031 -18.257812 L 85.683594 -20.554688 L 77.46875 -17.816406 C 77.445312 -17.890625 77.371094 -18.050781 77.246094 -18.296875 L 76.167969 -20.453125 L 11.371094 -180.589844 C 9.691406 -184.792969 9.371094 -188.632812 10.410156 -192.101562 L 10.449219 -192.226562 L 10.492188 -192.351562 C 10.980469 -193.824219 11.910156 -195.390625 13.273438 -197.0625 C 15.699219 -200.027344 19.128906 -201.507812 23.558594 -201.507812 L 48.5 -201.507812 C 52.117188 -201.507812 55.238281 -200.527344 57.855469 -198.5625 C 60.484375 -196.589844 62.300781 -193.859375 63.296875 -190.375 L 54.96875 -187.996094 L 63.003906 -191.230469 L 120.511719 -48.269531 L 112.476562 -45.035156 L 118.597656 -51.160156 C 120.445312 -49.316406 121.367188 -47.121094 121.367188 -44.574219 L 121.367188 -44.34375 L 112.707031 -44.34375 L 110.605469 -52.746094 L 111.527344 -52.976562 L 113.628906 -44.574219 L 107.503906 -50.699219 L 107.621094 -50.8125 C 106.007812 -49.199219 105.199219 -47.273438 105.199219 -45.035156 L 105.199219 -46.6875 L 162.4375 -191.296875 L 162.484375 -191.410156 C 163.804688 -194.492188 165.671875 -196.90625 168.078125 -198.648438 C 170.710938 -200.554688 173.730469 -201.507812 177.140625 -201.507812 Z M 202.546875 -184.1875 L 177.140625 -184.1875 C 177.472656 -184.1875 177.839844 -184.332031 178.238281 -184.621094 C 178.394531 -184.734375 178.511719 -184.839844 178.585938 -184.941406 C 178.542969 -184.882812 178.480469 -184.765625 178.40625 -184.585938 L 170.445312 -187.996094 L 178.496094 -184.808594 L 121.914062 -41.847656 L 113.859375 -45.035156 L 122.523438 -45.035156 C 122.523438 -42.492188 121.636719 -40.332031 119.871094 -38.566406 L 118.058594 -36.753906 L 104.046875 -33.25 L 104.046875 -44.574219 C 104.046875 -42.335938 104.8125 -40.449219 106.351562 -38.910156 L 105.101562 -40.164062 L 46.761719 -185.183594 L 46.640625 -185.617188 C 46.628906 -185.652344 46.625 -185.675781 46.621094 -185.675781 C 46.648438 -185.617188 46.683594 -185.550781 46.730469 -185.476562 C 46.914062 -185.191406 47.15625 -184.933594 47.460938 -184.707031 C 47.761719 -184.480469 48.070312 -184.320312 48.386719 -184.230469 C 48.464844 -184.207031 48.53125 -184.191406 48.585938 -184.183594 C 48.574219 -184.1875 48.546875 -184.1875 48.5 -184.1875 L 23.558594 -184.1875 C 23.703125 -184.1875 23.949219 -184.246094 24.289062 -184.367188 C 25.210938 -184.695312 26.007812 -185.269531 26.679688 -186.09375 C 26.539062 -185.917969 26.449219 -185.804688 26.410156 -185.746094 C 26.597656 -186.035156 26.769531 -186.410156 26.925781 -186.875 L 18.707031 -189.613281 L 27.003906 -187.125 C 27.117188 -187.507812 27.160156 -187.816406 27.132812 -188.046875 C 27.160156 -187.839844 27.257812 -187.519531 27.429688 -187.089844 L 92.097656 -27.269531 L 84.066406 -24.019531 L 91.8125 -27.894531 L 92.738281 -26.046875 C 93.230469 -25.0625 93.617188 -24.144531 93.902344 -23.292969 L 93.972656 -23.074219 L 94.035156 -22.851562 C 95.203125 -18.605469 97.574219 -15.148438 101.140625 -12.484375 C 104.761719 -9.78125 108.773438 -8.429688 113.167969 -8.429688 C 117.179688 -8.429688 120.820312 -9.589844 124.089844 -11.914062 L 124.632812 -12.296875 L 125.230469 -12.597656 C 125.933594 -12.949219 126.335938 -13.175781 126.445312 -13.285156 L 126.679688 -13.519531 L 126.929688 -13.734375 C 129.125 -15.613281 131.710938 -20.121094 134.695312 -27.246094 L 198.894531 -187.058594 C 199.074219 -187.507812 199.175781 -187.839844 199.203125 -188.046875 C 199.175781 -187.816406 199.21875 -187.507812 199.332031 -187.125 L 199.273438 -187.316406 L 199.226562 -187.511719 C 199.390625 -186.851562 199.636719 -186.277344 199.960938 -185.792969 C 200.023438 -185.695312 200.082031 -185.617188 200.136719 -185.550781 L 200.117188 -185.570312 C 200.738281 -184.949219 201.417969 -184.523438 202.160156 -184.292969 C 202.324219 -184.238281 202.472656 -184.203125 202.601562 -184.1875 Z M 202.546875 -184.1875 "/></g></g></g><g clip-path="url(#8cd4642505)"><g transform="matrix(1, 0, 0, 1, 0, 4)"><g clip-path="url(#3527a1fabd)"><g clip-path="url(#2aecff7e25)"><g mask="url(#9c80218d61)"><g transform="matrix(1, 0, 0, 1, 0, 0.000000000000112799)"><g clip-path="url(#5625ac1525)"><path fill="url(#285d2de819)" d="M 0 46 L 0 1201 L 1500 1201 L 1500 46 Z M 0 46 " fill-rule="nonzero"/></g></g></g></g></g></g></g><g clip-path="url(#64789a80fb)"><g transform="matrix(1, 0, 0, 1, 251, 698)"><g clip-path="url(#6e7d9f8173)"><g clip-path="url(#63a162151d)"><g mask="url(#3c4d484223)"><g transform="matrix(1, 0, 0, 1, 0, 0.000000000000113687)"><g clip-path="url(#dbc3577763)"><g clip-path="url(#0367991bcf)"><path fill="url(#88d1cea96c)" d="M 0.0859375 0.757812 L 0.0859375 249.007812 L 997.585938 249.007812 L 997.585938 0.757812 Z M 0.0859375 0.757812 " fill-rule="nonzero"/></g></g></g></g></g></g></g></g></svg>